<svg width="20" height="20" viewBox="0 0 20 20" fill="none" xmlns="http://www.w3.org/2000/svg">
<path d="M15.1699 3.33008H12C11.6023 3.33051 11.221 3.48869 10.9398 3.7699C10.6586 4.05111 10.5004 4.43239 10.5 4.83008V15.1699C10.5004 15.5676 10.6586 15.9489 10.9398 16.2301C11.221 16.5113 11.6023 16.6695 12 16.6699H15.1699C15.5676 16.6695 15.9489 16.5113 16.2301 16.2301C16.5113 15.9489 16.6695 15.5676 16.6699 15.1699V4.83008C16.6695 4.43239 16.5113 4.05111 16.2301 3.7699C15.9489 3.48869 15.5676 3.33051 15.1699 3.33008ZM15.6699 15.1699C15.6697 15.3025 15.617 15.4296 15.5233 15.5233C15.4296 15.617 15.3025 15.6697 15.1699 15.6699H12C11.8674 15.6697 11.7404 15.617 11.6466 15.5233C11.5529 15.4296 11.5002 15.3025 11.5 15.1699V4.83008C11.5002 4.69752 11.5529 4.57045 11.6466 4.47671C11.7404 4.38298 11.8674 4.33025 12 4.33008H15.1699C15.3025 4.33025 15.4296 4.38298 15.5233 4.47671C15.617 4.57045 15.6697 4.69752 15.6699 4.83008V15.1699ZM8 12.1201H4.83008C4.43239 12.1206 4.05111 12.2787 3.7699 12.5599C3.48869 12.8411 3.33051 13.2224 3.33008 13.6201V15.1699C3.33051 15.5676 3.48869 15.9489 3.7699 16.2301C4.05111 16.5113 4.43239 16.6695 4.83008 16.6699H8C8.39769 16.6695 8.77897 16.5113 9.06018 16.2301C9.34139 15.9489 9.49956 15.5676 9.5 15.1699V13.6201C9.49956 13.2224 9.34139 12.8411 9.06018 12.5599C8.77897 12.2787 8.39769 12.1206 8 12.1201ZM8.5 15.1699C8.49983 15.3025 8.44709 15.4296 8.35336 15.5233C8.25963 15.617 8.13255 15.6697 8 15.6699H4.83008C4.69752 15.6697 4.57045 15.617 4.47671 15.5233C4.38298 15.4296 4.33025 15.3025 4.33008 15.1699V13.6201C4.33025 13.4876 4.38298 13.3605 4.47671 13.2668C4.57045 13.173 4.69752 13.1203 4.83008 13.1201H8C8.13255 13.1203 8.25963 13.173 8.35336 13.2668C8.44709 13.3605 8.49983 13.4876 8.5 13.6201V15.1699ZM8 3.33008H4.83008C4.43239 3.33051 4.05111 3.48869 3.7699 3.7699C3.48869 4.05111 3.33051 4.43239 3.33008 4.83008V9.62008C3.33051 10.0178 3.48869 10.399 3.7699 10.6803C4.05111 10.9615 4.43239 11.1196 4.83008 11.1201H8C8.39769 11.1196 8.77897 10.9615 9.06018 10.6803C9.34139 10.399 9.49956 10.0178 9.5 9.62008V4.83008C9.49956 4.43239 9.34139 4.05111 9.06018 3.7699C8.77897 3.48869 8.39769 3.33051 8 3.33008ZM8.5 9.62008C8.49983 9.75263 8.44709 9.87971 8.35336 9.97344C8.25963 10.0672 8.13255 10.1199 8 10.1201H4.83008C4.69752 10.1199 4.57045 10.0672 4.47671 9.97344C4.38298 9.87971 4.33025 9.75263 4.33008 9.62008V4.83008C4.33025 4.69752 4.38298 4.57045 4.47671 4.47671C4.57045 4.38298 4.69752 4.33025 4.83008 4.33008H8C8.13255 4.33025 8.25963 4.38298 8.35336 4.47671C8.44709 4.57045 8.49983 4.69752 8.5 4.83008V9.62008Z" fill="white"/>
</svg>
