<svg width="30" height="30" viewBox="0 0 30 30" fill="none" xmlns="http://www.w3.org/2000/svg">
<rect width="30" height="30" rx="6" fill="#0094FF" fill-opacity="0.1"/>
<path d="M20.9847 13.2127V12.8817C20.9847 11.2945 20.3542 9.77223 19.2318 8.64987C18.1095 7.52751 16.5872 6.89697 14.9999 6.89697C13.4127 6.89697 11.8904 7.52751 10.7681 8.64987C9.64572 9.77223 9.01519 11.2945 9.01519 12.8817V13.2127C8.51794 13.3442 8.07799 13.6361 7.76355 14.0431C7.44912 14.4502 7.27779 14.9496 7.27612 15.4639V18.3133C7.27612 18.9336 7.52253 19.5285 7.96114 19.9671C8.39975 20.4057 8.99463 20.6521 9.61492 20.6521C10.2352 20.6521 10.8301 20.4057 11.2687 19.9671C11.7073 19.5285 11.9537 18.9336 11.9537 18.3133V15.464C11.9521 14.9497 11.7809 14.4503 11.4666 14.0433C11.1522 13.6363 10.7124 13.3443 10.2152 13.2128V12.8817C10.2152 11.6127 10.7194 10.3957 11.6167 9.4984C12.514 8.60108 13.731 8.09697 15 8.09697C16.269 8.09697 17.486 8.60108 18.3833 9.4984C19.2807 10.3957 19.7848 11.6127 19.7848 12.8817V13.2127C19.2876 13.3443 18.8478 13.6362 18.5335 14.0433C18.2191 14.4503 18.0479 14.9497 18.0463 15.4639V18.3133C18.0479 18.8275 18.2191 19.3268 18.5334 19.7338C18.8478 20.1407 19.2876 20.4326 19.7848 20.564V20.8264C19.7846 21.0253 19.7056 21.2161 19.565 21.3568C19.4244 21.4975 19.2337 21.5767 19.0348 21.577H15.6911C15.6064 21.4759 15.5007 21.3943 15.3814 21.338C15.262 21.2816 15.1319 21.2519 14.9999 21.2507C14.7543 21.2507 14.5188 21.3483 14.3451 21.5219C14.1714 21.6956 14.0739 21.9312 14.0739 22.1768C14.0739 22.4224 14.1714 22.6579 14.3451 22.8316C14.5188 23.0053 14.7543 23.1029 14.9999 23.1029C15.1318 23.1017 15.2618 23.0719 15.3811 23.0157C15.5004 22.9595 15.606 22.8781 15.6908 22.7771H19.0347C19.5518 22.7764 20.0475 22.5707 20.4131 22.205C20.7786 21.8393 20.9842 21.3436 20.9847 20.8265V20.5641C21.4819 20.4327 21.9219 20.1409 22.2363 19.734C22.5508 19.327 22.7221 18.8277 22.7238 18.3134V15.464C22.7221 14.9496 22.5508 14.4502 22.2364 14.0432C21.9219 13.6361 21.482 13.3442 20.9847 13.2127ZM10.7537 15.4639V18.3133C10.7515 18.6139 10.6305 18.9015 10.4172 19.1132C10.2039 19.325 9.91549 19.4439 9.61489 19.4439C9.3143 19.4439 9.02589 19.325 8.81257 19.1132C8.59924 18.9015 8.4783 18.6139 8.47612 18.3133V15.464C8.47503 15.3137 8.50368 15.1648 8.56042 15.0256C8.61716 14.8865 8.70087 14.76 8.80672 14.6534C8.91258 14.5467 9.03848 14.4621 9.17718 14.4044C9.31589 14.3466 9.46465 14.3169 9.61489 14.3169C9.76514 14.3169 9.9139 14.3466 10.0526 14.4044C10.1913 14.4621 10.3172 14.5467 10.4231 14.6534C10.5289 14.76 10.6126 14.8865 10.6694 15.0256C10.7261 15.1648 10.7548 15.3137 10.7537 15.4639ZM21.5238 18.3133C21.5216 18.6139 21.4007 18.9015 21.1873 19.1132C20.974 19.325 20.6856 19.4439 20.385 19.4439C20.0844 19.4439 19.796 19.325 19.5827 19.1132C19.3694 18.9015 19.2484 18.6139 19.2462 18.3133V15.464C19.2451 15.3137 19.2738 15.1648 19.3305 15.0256C19.3873 14.8865 19.471 14.76 19.5768 14.6534C19.6827 14.5467 19.8086 14.4621 19.9473 14.4044C20.086 14.3466 20.2348 14.3169 20.385 14.3169C20.5352 14.3169 20.684 14.3466 20.8227 14.4044C20.9614 14.4621 21.0873 14.5467 21.1932 14.6534C21.299 14.76 21.3827 14.8865 21.4395 15.0256C21.4962 15.1648 21.5249 15.3137 21.5238 15.464V18.3133Z" fill="#0094FF"/>
</svg>
