<svg width="20" height="20" viewBox="0 0 20 20" fill="none" xmlns="http://www.w3.org/2000/svg">
<path d="M15.2982 5.43005C15.2904 5.41943 15.2879 5.40661 15.2791 5.39648C15.2686 5.38448 15.2541 5.37939 15.2427 5.36859C15.1477 5.26117 15.0565 5.15159 14.9539 5.04882C14.305 4.39934 13.5345 3.88419 12.6863 3.53287C11.8382 3.18155 10.929 3.00095 10.011 3.0014L10.0017 2.99951L9.992 3.00146C8.39367 3.00215 6.84364 3.54945 5.59923 4.5525C4.35482 5.55556 3.49087 6.95403 3.15082 8.51577C2.81076 10.0775 3.01504 11.7086 3.72976 13.1382C4.44447 14.5678 5.62662 15.7101 7.07997 16.3752C8.53331 17.0404 10.1704 17.1885 11.7196 16.795C13.2687 16.4015 14.6367 15.49 15.5964 14.2119C16.5561 12.9337 17.0498 11.3658 16.9956 9.76841C16.9414 8.171 16.3424 6.64017 15.2982 5.43005ZM14.5645 13.8568L10.734 10.0262L14.8213 6.45977C15.615 7.5426 16.0212 8.861 15.9747 10.2027C15.9281 11.5445 15.4314 12.8316 14.5645 13.8568ZM10.5017 4.04834C11.8802 4.15412 13.1787 4.73685 14.174 5.69634L10.5017 8.90057V4.04834ZM5.75661 14.2461C4.63281 13.1191 4.00174 11.5925 4.00174 10.001C4.00174 8.40944 4.63281 6.88284 5.75661 5.75586C6.76203 4.75918 8.08994 4.15374 9.50173 4.04834V10.001C9.50073 10.0943 9.5301 10.1854 9.58541 10.2605C9.59655 10.2846 9.60972 10.3077 9.62478 10.3296C9.62862 10.334 9.63424 10.3353 9.6382 10.3395C9.64236 10.344 9.64388 10.3502 9.6482 10.3545L13.8575 14.5638C12.7129 15.5353 11.2453 16.0418 9.74516 15.9829C8.245 15.9241 6.82159 15.3043 5.75661 14.2461Z" fill="white"/>
</svg>
