<svg width="18" height="18" viewBox="0 0 18 18" fill="none" xmlns="http://www.w3.org/2000/svg">
<g clip-path="url(#clip0_178_3703)">
<path d="M18 4.80933H11.0671V8.99995H18V4.80933Z" fill="#21A365"/>
<path d="M18 9H11.0671V13.1906H18V9Z" fill="#107C41"/>
<path d="M11.0672 4.80933H4.14844V8.99995H11.0672V4.80933Z" fill="#107C41"/>
<path d="M11.0673 13.1906V9H4.1626V13.1906V13.7953V16.5516C4.1626 17.0016 4.52822 17.3672 4.97822 17.3672H17.1704C17.6204 17.3672 17.986 17.0016 17.986 16.5516V13.1906H11.0673Z" fill="#185B37"/>
<path d="M17.1704 0.632812H11.0532V4.82344H18.0001V1.44844C17.986 0.998438 17.6204 0.632812 17.1704 0.632812Z" fill="#33C481"/>
<path d="M11.0671 0.632812H4.99214C4.54214 0.632812 4.17651 0.998438 4.17651 1.44844V4.80938H11.0812V0.632812H11.0671Z" fill="#21A365"/>
<path d="M8.36729 13.5703H0.91416C0.421973 13.5703 0.0141602 13.1625 0.0141602 12.6703V5.32969C0.0141602 4.8375 0.421973 4.42969 0.91416 4.42969H8.36729C8.85947 4.42969 9.26729 4.8375 9.26729 5.32969V12.6703C9.26729 13.1625 8.87354 13.5703 8.36729 13.5703Z" fill="#17864C"/>
<path d="M5.69521 11.5875L5.14678 10.5891C4.92178 10.1953 4.78115 9.92813 4.62647 9.63281H4.6124C4.48584 9.92813 4.35928 10.1953 4.14834 10.5891L3.65615 11.5875H2.5874L4.10615 9.04219L2.62959 6.53906H3.7124L4.26084 7.57969C4.42959 7.88906 4.55615 8.14219 4.68271 8.42344H4.71084C4.85146 8.11406 4.9499 7.88906 5.11865 7.57969L5.66709 6.53906H6.73584L5.23115 9L6.79209 11.5875H5.69521Z" fill="white"/>
<path opacity="0.2" d="M9.37959 5.24536C9.37959 5.27349 9.37959 5.30161 9.37959 5.32974V12.6704C9.37959 13.1625 8.97178 13.5704 8.47959 13.5704H4.2749V14.3719H9.2249C9.71709 14.3719 10.1249 13.9641 10.1249 13.4719V6.1313C10.139 5.6813 9.80146 5.30161 9.37959 5.24536Z" fill="black"/>
</g>
<defs>
<clipPath id="clip0_178_3703">
<rect width="18" height="18" fill="white"/>
</clipPath>
</defs>
</svg>
