<svg width="16" height="16" viewBox="0 0 16 16" fill="none" xmlns="http://www.w3.org/2000/svg">
<path d="M6.5332 2.6377C7.85032 2.28454 9.2555 2.43235 10.4746 3.05762L10.7217 3.18359L10.916 2.80469L10.917 2.80371L10.9531 2.74707C10.9932 2.69267 11.0439 2.64672 11.1025 2.6123L11.1631 2.58203C11.2253 2.55607 11.2924 2.54327 11.3604 2.54395C11.4509 2.54487 11.54 2.56979 11.6172 2.61719C11.675 2.65274 11.7248 2.6998 11.7637 2.75488L11.7988 2.8125V2.81348L12.4746 4.19629L12.5166 4.30469C12.5261 4.34193 12.5318 4.38024 12.5322 4.41895C12.533 4.49678 12.5148 4.5742 12.4795 4.64355L12.4785 4.64453C12.4413 4.71185 12.3891 4.77013 12.3262 4.81445C12.2947 4.83661 12.261 4.85566 12.2256 4.87012L12.1152 4.90039L10.6006 5.15137C10.5102 5.16706 10.4171 5.15728 10.332 5.12305C10.2469 5.0888 10.1735 5.03097 10.1191 4.95703C10.0648 4.88307 10.0316 4.79557 10.0244 4.7041C10.0172 4.61267 10.0361 4.52096 10.0781 4.43945L10.2705 4.0625L10.0234 3.93555C9.09266 3.45835 8.02518 3.31858 7.00293 3.54004C5.98052 3.76163 5.06579 4.33147 4.41602 5.15137C3.76647 5.97118 3.42162 6.9913 3.43945 8.03711C3.45739 9.08294 3.83741 10.0905 4.51465 10.8877L4.64453 11.0342C5.30877 11.7506 6.1886 12.2342 7.15332 12.4092C8.18256 12.5958 9.24514 12.4197 10.1592 11.9111L10.3281 11.8115C11.1606 11.2998 11.8071 10.5314 12.167 9.61914L12.2344 9.43555C12.5321 8.57336 12.562 7.64127 12.3203 6.76172L12.2646 6.57422C12.2448 6.51265 12.237 6.44729 12.2422 6.38281C12.2474 6.31825 12.2654 6.25492 12.2949 6.19727C12.3245 6.13962 12.3657 6.08883 12.415 6.04688C12.4644 6.00492 12.5214 5.97301 12.583 5.95312C12.6447 5.93324 12.7098 5.92543 12.7744 5.93066C12.8388 5.93591 12.9015 5.95396 12.959 5.9834C13.0166 6.01292 13.0684 6.05322 13.1104 6.10254C13.1522 6.1518 13.1842 6.20899 13.2041 6.27051L13.2812 6.53027C13.4467 7.14041 13.5053 7.77577 13.4541 8.40723C13.3955 9.12856 13.195 9.83141 12.8633 10.4746L12.8623 10.4736C12.5336 11.1186 12.081 11.6925 11.5293 12.1611C11.0464 12.5713 10.4963 12.8945 9.9043 13.1162L9.64844 13.2051C8.96009 13.4288 8.2341 13.5138 7.5127 13.4551C6.88152 13.4037 6.26461 13.2431 5.68945 12.9814L5.44531 12.8633C4.145 12.1964 3.16272 11.0395 2.71484 9.64844C2.26713 8.25752 2.39077 6.74549 3.05762 5.44531L3.1875 5.20508C3.86913 4.02416 4.96742 3.13472 6.27148 2.71484L6.5332 2.6377Z" fill="black" stroke="black" stroke-width="0.1"/>
</svg>
