<svg width="16" height="16" viewBox="0 0 16 16" fill="none" xmlns="http://www.w3.org/2000/svg">
<path d="M9.68176 5.86363H13.4999" stroke="black" stroke-width="0.818182" stroke-linecap="round" stroke-linejoin="round"/>
<path d="M9.68176 10.2273H13.4999" stroke="black" stroke-width="0.818182" stroke-linecap="round" stroke-linejoin="round"/>
<path d="M3.68176 4.22727V2.04545C3.68176 1.90079 3.73923 1.76205 3.84152 1.65976C3.94382 1.55747 4.08255 1.5 4.22722 1.5H12.9545C13.0992 1.5 13.2379 1.55747 13.3402 1.65976C13.4425 1.76205 13.4999 1.90079 13.4999 2.04545V14.0455C13.4999 14.1901 13.4425 14.3289 13.3402 14.4311C13.2379 14.5334 13.0992 14.5909 12.9545 14.5909H4.22722C4.08255 14.5909 3.94382 14.5334 3.84152 14.4311C3.73923 14.3289 3.68176 14.1901 3.68176 14.0455V11.8636" stroke="black" stroke-width="0.818182" stroke-linecap="round" stroke-linejoin="round"/>
<path d="M8.59094 11.8636V14.5909" stroke="black" stroke-width="0.818182" stroke-linecap="round" stroke-linejoin="round"/>
<path d="M8.59094 1.5V4.22727" stroke="black" stroke-width="0.818182" stroke-linecap="round" stroke-linejoin="round"/>
<path d="M9.13636 4.22728H2.04545C1.74421 4.22728 1.5 4.47149 1.5 4.77273V11.3182C1.5 11.6194 1.74421 11.8636 2.04545 11.8636H9.13636C9.43761 11.8636 9.68182 11.6194 9.68182 11.3182V4.77273C9.68182 4.47149 9.43761 4.22728 9.13636 4.22728Z" stroke="black" stroke-width="0.818182" stroke-linecap="round" stroke-linejoin="round"/>
<path d="M4.36365 6.40909L6.81819 9.68182" stroke="black" stroke-width="0.818182" stroke-linecap="round" stroke-linejoin="round"/>
<path d="M6.81819 6.40909L4.36365 9.68182" stroke="black" stroke-width="0.818182" stroke-linecap="round" stroke-linejoin="round"/>
</svg>
