<svg width="30" height="30" viewBox="0 0 30 30" fill="none" xmlns="http://www.w3.org/2000/svg">
<rect width="30" height="30" rx="6" fill="#FF2E2E" fill-opacity="0.1"/>
<path d="M22.6558 17.8808L17.598 9.11868C17.3211 8.64234 16.9191 8.251 16.4354 7.98717C15.9517 7.72335 15.405 7.59715 14.8547 7.62228L14.8382 7.62348C14.3477 7.64682 13.8706 7.79165 13.4498 8.04497C13.0291 8.29829 12.6779 8.65215 12.4277 9.07478C12.4183 9.08942 12.4101 9.10407 12.4019 9.11873L7.34411 17.8808C7.08062 18.3368 6.94181 18.854 6.94165 19.3806C6.94149 19.9072 7.07997 20.4246 7.34318 20.8807C7.60638 21.3368 7.98503 21.7155 8.44105 21.9789C8.89707 22.2422 9.41439 22.3808 9.94098 22.3808H20.059C20.5862 22.384 21.1049 22.2467 21.5615 21.9829C22.0181 21.7192 22.3962 21.3386 22.6569 20.8802C22.9234 20.4253 23.0638 19.9076 23.0636 19.3804C23.0634 18.8532 22.9227 18.3355 22.6558 17.8808ZM21.6175 20.2803C21.4611 20.5553 21.2343 20.7836 20.9604 20.9419C20.6865 21.1002 20.3753 21.1827 20.059 21.1808H9.94098C9.62462 21.1819 9.3136 21.0993 9.03937 20.9416C8.76514 20.7838 8.53742 20.5565 8.37926 20.2825C8.2211 20.0085 8.13809 19.6976 8.13864 19.3812C8.13919 19.0649 8.22327 18.7543 8.38239 18.4808L13.4402 9.71868C13.5985 9.44516 13.8259 9.21808 14.0997 9.06022C14.3735 8.90235 14.6839 8.81925 15 8.81925C15.316 8.81925 15.6265 8.90235 15.9002 9.06022C16.174 9.21808 16.4014 9.44516 16.5597 9.71868L21.6175 18.4808C21.7772 18.7538 21.8613 19.0643 21.8613 19.3805C21.8613 19.6967 21.7772 20.0073 21.6175 20.2803ZM15.4195 18.2517C15.4766 18.3058 15.522 18.3709 15.553 18.4431C15.584 18.5152 15.6 18.593 15.6 18.6716C15.6 18.7501 15.584 18.8279 15.553 18.9C15.522 18.9722 15.4766 19.0373 15.4195 19.0914C15.3692 19.1527 15.3026 19.1986 15.2274 19.2238C15.1561 19.2567 15.0784 19.2732 15 19.2719C14.8813 19.273 14.765 19.2385 14.6661 19.173C14.5671 19.1074 14.4901 19.0137 14.4448 18.904C14.3996 18.7943 14.3882 18.6735 14.4122 18.5573C14.4361 18.4411 14.4943 18.3347 14.5793 18.2518C14.6617 18.1676 14.7675 18.1099 14.883 18.0863C14.9985 18.0627 15.1184 18.0742 15.2273 18.1193C15.3025 18.1445 15.3692 18.1904 15.4195 18.2517ZM15.6 13.1483V16.7043C15.6 16.8635 15.5368 17.0161 15.4242 17.1286C15.3117 17.2411 15.1591 17.3043 15 17.3043C14.8408 17.3043 14.6882 17.2411 14.5757 17.1286C14.4632 17.0161 14.4 16.8635 14.4 16.7043V13.1483C14.4 12.9891 14.4632 12.8365 14.5757 12.724C14.6882 12.6115 14.8408 12.5483 15 12.5483C15.1591 12.5483 15.3117 12.6115 15.4242 12.724C15.5368 12.8365 15.6 12.9891 15.6 13.1483Z" fill="#FF2E2E"/>
</svg>
