<svg width="20" height="20" viewBox="0 0 20 20" fill="none" xmlns="http://www.w3.org/2000/svg">
<path d="M14.262 4.288H13.491V3.5C13.491 3.36739 13.4384 3.24021 13.3446 3.14645C13.2508 3.05268 13.1236 3 12.991 3C12.8584 3 12.7313 3.05268 12.6375 3.14645C12.5437 3.24021 12.491 3.36739 12.491 3.5V4.288H7.50904V3.5C7.50904 3.36739 7.45636 3.24021 7.36259 3.14645C7.26882 3.05268 7.14165 3 7.00904 3C6.87643 3 6.74925 3.05268 6.65548 3.14645C6.56172 3.24021 6.50904 3.36739 6.50904 3.5V4.288H5.73804C5.075 4.288 4.43911 4.55139 3.97027 5.02023C3.50143 5.48907 3.23804 6.12496 3.23804 6.788V14.194C3.23804 14.5223 3.3027 14.8474 3.42834 15.1507C3.55398 15.454 3.73812 15.7296 3.97027 15.9618C4.20242 16.1939 4.47801 16.3781 4.78133 16.5037C5.08464 16.6293 5.40973 16.694 5.73804 16.694H14.262C14.9251 16.694 15.561 16.4306 16.0298 15.9618C16.4986 15.4929 16.762 14.857 16.762 14.194V6.788C16.762 6.12496 16.4986 5.48907 16.0298 5.02023C15.561 4.55139 14.9251 4.288 14.262 4.288ZM5.73804 5.288H14.262C14.6599 5.288 15.0414 5.44603 15.3227 5.72734C15.604 6.00864 15.762 6.39018 15.762 6.788V7.164H4.23804V6.788C4.23804 6.39018 4.39607 6.00864 4.67738 5.72734C4.95868 5.44603 5.34021 5.288 5.73804 5.288ZM14.262 15.694H5.73804C5.34021 15.694 4.95868 15.536 4.67738 15.2547C4.39607 14.9734 4.23804 14.5918 4.23804 14.194V8.164H15.762V14.194C15.762 14.5918 15.604 14.9734 15.3227 15.2547C15.0414 15.536 14.6599 15.694 14.262 15.694ZM6.82104 10.337C6.89098 10.4069 6.93861 10.496 6.95792 10.593C6.97722 10.69 6.96733 10.7905 6.92949 10.8819C6.89165 10.9733 6.82757 11.0514 6.74534 11.1063C6.66311 11.1613 6.56643 11.1906 6.46754 11.1906C6.36864 11.1906 6.27196 11.1613 6.18974 11.1063C6.10751 11.0514 6.04342 10.9733 6.00558 10.8819C5.96774 10.7905 5.95785 10.69 5.97716 10.593C5.99646 10.496 6.0441 10.4069 6.11404 10.337C6.2078 10.2433 6.33496 10.1906 6.46754 10.1906C6.60012 10.1906 6.72727 10.2433 6.82104 10.337ZM9.17604 10.337C9.24598 10.4069 9.29361 10.496 9.31292 10.593C9.33222 10.69 9.32233 10.7905 9.28449 10.8819C9.24665 10.9733 9.18257 11.0514 9.10034 11.1063C9.01811 11.1613 8.92143 11.1906 8.82254 11.1906C8.72364 11.1906 8.62696 11.1613 8.54474 11.1063C8.46251 11.0514 8.39842 10.9733 8.36058 10.8819C8.32274 10.7905 8.31285 10.69 8.33216 10.593C8.35146 10.496 8.3991 10.4069 8.46904 10.337C8.5628 10.2433 8.68996 10.1906 8.82254 10.1906C8.95512 10.1906 9.08227 10.2433 9.17604 10.337ZM11.531 10.337C11.601 10.4069 11.6486 10.496 11.6679 10.593C11.6872 10.69 11.6773 10.7905 11.6395 10.8819C11.6017 10.9733 11.5376 11.0514 11.4553 11.1063C11.3731 11.1613 11.2764 11.1906 11.1775 11.1906C11.0786 11.1906 10.982 11.1613 10.8997 11.1063C10.8175 11.0514 10.7534 10.9733 10.7156 10.8819C10.6777 10.7905 10.6679 10.69 10.6872 10.593C10.7065 10.496 10.7541 10.4069 10.824 10.337C10.9178 10.2433 11.045 10.1906 11.1775 10.1906C11.3101 10.1906 11.4373 10.2433 11.531 10.337ZM13.886 10.337C13.956 10.4069 14.0036 10.496 14.0229 10.593C14.0422 10.69 14.0323 10.7905 13.9945 10.8819C13.9567 10.9733 13.8926 11.0514 13.8103 11.1063C13.7281 11.1613 13.6314 11.1906 13.5325 11.1906C13.4336 11.1906 13.337 11.1613 13.2547 11.1063C13.1725 11.0514 13.1084 10.9733 13.0706 10.8819C13.0327 10.7905 13.0229 10.69 13.0422 10.593C13.0615 10.496 13.1091 10.4069 13.179 10.337C13.2728 10.2433 13.4 10.1906 13.5325 10.1906C13.6651 10.1906 13.7923 10.2433 13.886 10.337ZM6.82104 12.815C6.89098 12.8849 6.93861 12.974 6.95792 13.071C6.97722 13.168 6.96733 13.2685 6.92949 13.3599C6.89165 13.4513 6.82757 13.5294 6.74534 13.5843C6.66311 13.6393 6.56643 13.6686 6.46754 13.6686C6.36864 13.6686 6.27196 13.6393 6.18974 13.5843C6.10751 13.5294 6.04342 13.4513 6.00558 13.3599C5.96774 13.2685 5.95785 13.168 5.97716 13.071C5.99646 12.974 6.0441 12.8849 6.11404 12.815C6.2078 12.7213 6.33496 12.6686 6.46754 12.6686C6.60012 12.6686 6.72727 12.7213 6.82104 12.815ZM9.17604 12.815C9.24598 12.8849 9.29361 12.974 9.31292 13.071C9.33222 13.168 9.32233 13.2685 9.28449 13.3599C9.24665 13.4513 9.18257 13.5294 9.10034 13.5843C9.01811 13.6393 8.92143 13.6686 8.82254 13.6686C8.72364 13.6686 8.62696 13.6393 8.54474 13.5843C8.46251 13.5294 8.39842 13.4513 8.36058 13.3599C8.32274 13.2685 8.31285 13.168 8.33216 13.071C8.35146 12.974 8.3991 12.8849 8.46904 12.815C8.5628 12.7213 8.68996 12.6686 8.82254 12.6686C8.95512 12.6686 9.08227 12.7213 9.17604 12.815ZM11.531 12.815C11.601 12.8849 11.6486 12.974 11.6679 13.071C11.6872 13.168 11.6773 13.2685 11.6395 13.3599C11.6017 13.4513 11.5376 13.5294 11.4553 13.5843C11.3731 13.6393 11.2764 13.6686 11.1775 13.6686C11.0786 13.6686 10.982 13.6393 10.8997 13.5843C10.8175 13.5294 10.7534 13.4513 10.7156 13.3599C10.6777 13.2685 10.6679 13.168 10.6872 13.071C10.7065 12.974 10.7541 12.8849 10.824 12.815C10.9178 12.7213 11.045 12.6686 11.1775 12.6686C11.3101 12.6686 11.4373 12.7213 11.531 12.815Z" fill="#6A6D75"/>
</svg>
