<svg xmlns="http://www.w3.org/2000/svg" width="13.189" height="13" viewBox="0 0 13.189 13">
    <g data-name="그룹 14" transform="translate(-64.919 -220.961)">
        <path data-name="패스 5" d="M13.439 11.223c0 .74-2.728 1.339-6.095 1.339s-6.095-.6-6.095-1.339" transform="translate(64.169 213.845)" style="stroke-linecap:round;stroke-linejoin:round;fill:none;stroke:#fff"/>
        <path data-name="패스 6" d="M13.439 17.494c0 .74-2.728 1.339-6.095 1.339s-6.095-.6-6.095-1.339" transform="translate(64.169 209.842)" style="stroke-linecap:round;stroke-linejoin:round;fill:none;stroke:#fff"/>
        <path data-name="패스 7" d="M13.439 23.765c0 .74-2.728 1.339-6.095 1.339S1.25 24.5 1.25 23.765" transform="translate(64.169 205.839)" style="stroke-linecap:round;stroke-linejoin:round;fill:none;stroke:#fff"/>
        <path data-name="패스 8" d="M13.439 30.727c0 .74-2.728 1.339-6.095 1.339s-6.095-.6-6.095-1.339" transform="translate(64.169 201.395)" style="stroke-linecap:round;stroke-linejoin:round;fill:none;stroke:#fff"/>
        <path data-name="패스 9" d="M13.439 2.589c0 .74-2.728 1.339-6.095 1.339S1.25 3.329 1.25 2.589 3.978 1.25 7.345 1.25s6.095.6 6.095 1.339" transform="translate(64.169 220.211)" style="fill:none;stroke:#fff"/>
        <ellipse data-name="타원 3" cx="6.095" cy="1.339" rx="6.095" ry="1.339" transform="translate(65.419 221.461)" style="stroke-linecap:round;stroke-linejoin:round;fill:none;stroke:#fff"/>
    </g>
</svg>
