<svg width="30" height="30" viewBox="0 0 30 30" fill="none" xmlns="http://www.w3.org/2000/svg">
<rect width="30" height="30" rx="6" fill="#22CF56" fill-opacity="0.1"/>
<path d="M21.1707 12.4723L21.7404 11.3036C21.9564 10.8972 22.461 10.7429 22.8674 10.959C23.2737 11.1751 23.428 11.6797 23.2119 12.086L21.6104 15.372C21.6024 15.39 21.5937 15.4079 21.5843 15.4256C21.4763 15.6288 21.2961 15.769 21.0922 15.8313C20.8882 15.8937 20.6605 15.8782 20.4573 15.7702C20.4303 15.7558 20.4045 15.7402 20.3797 15.7235L17.3084 13.873C16.902 13.6569 16.7478 13.1523 16.9638 12.746C17.1799 12.3396 17.6845 12.1853 18.0909 12.4014L19.736 13.3926C19.0666 11.4198 17.1991 10.0002 15 10.0002C13.3885 10.0002 11.9065 10.7668 10.9692 12.0411C10.6965 12.4118 10.1749 12.4913 9.80412 12.2186C9.43338 11.9459 9.3539 11.4243 9.6266 11.0535C10.8747 9.35674 12.8528 8.3335 15 8.3335C17.7872 8.3335 20.1749 10.0439 21.1707 12.4723ZM10.264 16.6078C10.9335 18.5805 12.8009 20.0002 15 20.0002C16.6115 20.0002 18.0936 19.2335 19.0308 17.9592C19.3035 17.5885 19.8251 17.509 20.1959 17.7817C20.5666 18.0544 20.6461 18.576 20.3734 18.9468C19.1253 20.6436 17.1472 21.6668 15 21.6668C12.2128 21.6668 9.82517 19.9565 8.82929 17.5281L8.25972 18.6968C8.04365 19.1031 7.53907 19.2574 7.1327 19.0413C6.72634 18.8253 6.57207 18.3207 6.78814 17.9143L8.38963 14.6283C8.39764 14.6103 8.40635 14.5924 8.41576 14.5747C8.52379 14.3715 8.70395 14.2314 8.9079 14.169C9.11185 14.1067 9.33959 14.1221 9.54277 14.2301C9.56975 14.2445 9.59561 14.2601 9.62032 14.2769L12.6917 16.1274C13.098 16.3434 13.2523 16.848 13.0362 17.2544C12.8202 17.6607 12.3156 17.815 11.9092 17.5989L10.264 16.6078Z" fill="#22CF56"/>
</svg>
