<svg width="20" height="20" viewBox="0 0 20 20" fill="none" xmlns="http://www.w3.org/2000/svg">
<path d="M14.5718 9.01222H6.84522V7.20948C6.84522 6.79518 6.92682 6.38495 7.08537 6.00219C7.24391 5.61943 7.47629 5.27165 7.76924 4.9787C8.06219 4.68575 8.40997 4.45337 8.79273 4.29483C9.17548 4.13629 9.58572 4.05469 10 4.05469C10.4143 4.05469 10.8245 4.13629 11.2073 4.29483C11.5901 4.45337 11.9378 4.68575 12.2308 4.9787C12.5237 5.27165 12.7561 5.61943 12.9147 6.00219C13.0732 6.38495 13.1548 6.79518 13.1548 7.20948V7.51417C13.1548 7.64678 13.2075 7.77395 13.3012 7.86772C13.395 7.96149 13.5222 8.01417 13.6548 8.01417C13.7874 8.01417 13.9146 7.96149 14.0084 7.86772C14.1021 7.77395 14.1548 7.64678 14.1548 7.51417V7.20948C14.1548 6.10756 13.7171 5.05077 12.9379 4.2716C12.1587 3.49242 11.1019 3.05469 10 3.05469C8.89809 3.05469 7.84131 3.49242 7.06213 4.2716C6.28296 5.05077 5.84522 6.10756 5.84522 7.20948V9.01222H5.42822C5.03053 9.01265 4.64925 9.17083 4.36804 9.45204C4.08683 9.73325 3.92866 10.1145 3.92822 10.5122V13.4458C3.92935 14.3737 4.29846 15.2633 4.95459 15.9194C5.61072 16.5756 6.50031 16.9447 7.42822 16.9458H12.5718C13.4997 16.9447 14.3893 16.5756 15.0454 15.9194C15.7015 15.2633 16.0707 14.3737 16.0718 13.4458V10.5122C16.0713 10.1145 15.9132 9.73325 15.632 9.45204C15.3508 9.17083 14.9695 9.01265 14.5718 9.01222ZM15.0718 13.4458C15.071 14.1086 14.8074 14.744 14.3387 15.2127C13.87 15.6814 13.2346 15.945 12.5718 15.9458H7.42823C6.76543 15.945 6.13 15.6814 5.66133 15.2127C5.19265 14.744 4.92901 14.1086 4.92823 13.4458V10.5122C4.92832 10.3796 4.98103 10.2525 5.07478 10.1588C5.16853 10.065 5.29565 10.0123 5.42823 10.0122H6.33552L6.34522 10.0142L6.35493 10.0122H14.5718C14.7044 10.0123 14.8315 10.065 14.9252 10.1588C15.019 10.2525 15.0717 10.3796 15.0718 10.5122V13.4458ZM10.8443 12.3574C10.8425 12.487 10.8105 12.6143 10.7507 12.7292C10.691 12.8442 10.6051 12.9435 10.5 13.0193V13.9443C10.5 14.077 10.4473 14.2041 10.3536 14.2979C10.2598 14.3917 10.1326 14.4443 10 14.4443C9.8674 14.4443 9.74023 14.3917 9.64646 14.2979C9.55269 14.2041 9.50001 14.077 9.50001 13.9443V13.0193C9.39493 12.9435 9.30907 12.8442 9.24929 12.7292C9.18951 12.6143 9.15748 12.487 9.15577 12.3574C9.15577 12.2466 9.17761 12.1368 9.22004 12.0344C9.26246 11.9319 9.32465 11.8389 9.40304 11.7605C9.48144 11.6821 9.57451 11.6199 9.67694 11.5775C9.77936 11.535 9.88915 11.5132 10 11.5132C10.1109 11.5132 10.2207 11.535 10.3231 11.5775C10.4255 11.6199 10.5186 11.6821 10.597 11.7605C10.6754 11.8389 10.7376 11.9319 10.78 12.0344C10.8224 12.1368 10.8443 12.2466 10.8443 12.3574Z" fill="#6A6D75"/>
</svg>
