<svg width="186" height="58" viewBox="0 0 186 58" fill="none" xmlns="http://www.w3.org/2000/svg">
<path d="M5.3043 57.6526C5.36796 57.7813 5.42839 57.8974 5.48466 58C5.4248 57.9011 5.36454 57.7843 5.3043 57.6526C4.47589 55.9778 3.10027 52.1726 3.21489 48.2305C3.36917 42.9242 4.91896 40.0479 6.41035 37.8163C7.90174 35.5847 11.0173 31.3788 18.29 26.4103C23.7344 22.691 30.677 19.3683 36.0255 17.3351C41.3739 15.3019 45.3212 13.9807 48.0594 13.0702C51.0422 12.0784 61.8489 9.25171 64.1631 8.85498L62.106 14.6076C58.009 15.2853 49.8691 16.79 47.0309 17.4839C43.3796 18.3765 38.134 19.7155 34.2255 21.104C30.317 22.4926 24.4613 24.9226 20.81 27.0054C17.1586 29.0883 14.1244 31.3695 12.1702 33.1547C10.216 34.94 7.55305 38.1918 6.41035 40.2463C5.16912 42.4779 4.33212 44.2502 4.09612 46.8915L4.08142 47.0561C3.87876 49.323 3.78299 50.3942 3.88344 51.7019C3.97775 52.9296 4.63992 56.1999 5.3043 57.6526Z" fill="#868687"/>
<path d="M0.0106236 43.1403C-0.0919954 45.8739 0.575026 47.514 0.882883 48.2595C0.882883 46.1721 1.28384 43.5775 1.65253 42.0469C2.73002 37.5738 5.44943 33.8463 7.14264 31.56C8.83585 29.2738 14.1207 24.5025 18.2255 21.9181C22.3302 19.3336 26.2298 17.1965 33.6183 14.0653C39.5292 11.5604 47.335 9.41003 50.4991 8.64795L52.7054 0C48.2928 1.24252 35.4655 7.05752 29.4622 10.2384C23.459 13.4192 19.6622 16.1031 15.2495 19.3833C10.8369 22.6636 7.34787 26.2421 4.218 30.8145C1.39432 34.9397 0.146827 39.5122 0.0106236 43.1403Z" fill="#E7141A"/>
<path d="M44.5062 35.3572V36.6386H32.4786V35.3572H37.677V34.3816H34.0221V28.863H43.0646V30.1152H35.6384V31.018H42.7443V32.212H35.6384V33.1439H43.1665V34.3816H39.2933V35.3572H44.5062ZM33.9056 39.5072C33.9056 38.1312 35.5583 37.3594 38.4924 37.3667C41.3828 37.3594 43.0428 38.1312 43.0501 39.5072C43.0428 40.9196 41.3828 41.6622 38.4924 41.6622C35.5583 41.6622 33.9056 40.9196 33.9056 39.5072ZM35.5219 39.5072C35.5219 40.1479 36.5121 40.4537 38.4924 40.4537C40.4363 40.4537 41.4192 40.1479 41.4338 39.5072C41.4192 38.8811 40.4363 38.5753 38.4924 38.5753C36.5121 38.5753 35.5219 38.8811 35.5219 39.5072ZM55.7765 28.5135V31.7606H57.6112V33.1003H55.7765V36.2018H54.1602V28.5135H55.7765ZM45.409 31.0326V29.7366H48.5105V28.4116H50.1268V29.7366H53.2138V31.0326H45.409ZM46.0788 33.7992C46.0788 32.4013 47.3893 31.484 49.3114 31.484C51.2116 31.484 52.5221 32.4013 52.5294 33.7992C52.5221 35.1971 51.2116 36.1217 49.3114 36.1144C47.3893 36.1217 46.0788 35.1971 46.0788 33.7992ZM47.2728 41.5166V36.726H48.8745V37.8618H54.1602V36.726H55.7765V41.5166H47.2728ZM47.6514 33.7992C47.6441 34.5127 48.3139 34.9204 49.3114 34.9204C50.3088 34.9204 50.9859 34.5127 50.9859 33.7992C50.9859 33.1075 50.3088 32.678 49.3114 32.678C48.3139 32.678 47.6441 33.1075 47.6514 33.7992ZM48.8745 40.2352H54.1602V39.114H48.8745V40.2352ZM70.2941 35.896V37.2065H67.3673V41.6768H65.7218V37.2065H62.8096V41.6768H61.1496V37.2065H58.2665V35.896H70.2941ZM59.5333 31.9208C59.526 30.1298 61.4481 28.9867 64.2512 28.9794C67.0542 28.9867 68.9908 30.1298 68.9981 31.9208C68.9908 33.69 67.0542 34.8039 64.2512 34.8039C61.4481 34.8039 59.526 33.69 59.5333 31.9208ZM61.1933 31.9208C61.186 32.9255 62.3946 33.5153 64.2512 33.5225C66.115 33.5153 67.3236 32.9255 67.3236 31.9208C67.3236 30.887 66.115 30.2899 64.2512 30.2899C62.3946 30.2899 61.186 30.887 61.1933 31.9208ZM76.1331 32.2557C76.1331 34.4108 77.3999 36.6823 79.5259 37.5705L78.6376 38.8519C77.0796 38.1748 75.9438 36.7988 75.3395 35.1243C74.7352 36.9299 73.5776 38.4442 72.0414 39.1723L71.1095 37.9055C73.1845 36.9444 74.4804 34.4909 74.4877 32.2557V31.1491H71.59V29.8094H79.0162V31.1491H76.1331V32.2557ZM80.4869 41.6768V28.5135H82.1177V41.6768H80.4869ZM91.4078 29.4891V30.2754C91.3932 31.1709 91.3932 32.4814 91.0874 34.1487L89.4857 34.0031C89.7478 32.6489 89.7988 31.6369 89.8133 30.8287H84.6951V29.4891H91.4078ZM83.9088 35.1971C84.6878 35.1898 85.5615 35.1825 86.4861 35.168V32.4887H88.0878V35.117C89.4493 35.0587 90.8472 34.9568 92.1213 34.7748L92.2087 35.9397C89.4712 36.4348 86.3623 36.4857 84.0544 36.493L83.9088 35.1971ZM85.8745 41.4147V37.4977H87.5054V40.1042H94.9753V41.4147H85.8745ZM92.893 38.3714V28.5135H94.553V32.6197H96.2567V33.9739H94.553V38.3714H92.893ZM107.906 28.5135V41.6914H106.304V28.5135H107.906ZM97.6545 30.9743V29.6638H103.858V34.6001H99.3291V37.2502C101.404 37.2356 103.188 37.1264 105.241 36.7842L105.387 38.1093C103.151 38.4952 101.186 38.5826 98.8194 38.5753H97.6691V33.3187H102.212V30.9743H97.6545ZM114.808 31.6733C114.793 34.0904 116.067 36.5076 118.2 37.4249L117.239 38.7209C115.725 38.0219 114.618 36.6314 114.007 34.9131C113.402 36.7624 112.267 38.2768 110.672 39.0267L109.682 37.6725C111.874 36.726 113.155 34.2142 113.162 31.6733V29.5764H114.808V31.6733ZM119.147 41.6914V28.5135H120.778V41.6914H119.147ZM129.514 30.3191C129.514 32.3504 131.502 34.3962 134.261 34.8767L133.533 36.2309C131.327 35.7722 129.522 34.4326 128.663 32.6634C127.796 34.418 125.991 35.765 123.792 36.2309L123.078 34.8767C125.794 34.3816 127.789 32.3431 127.796 30.3191V29.3435H129.514V30.3191ZM122.714 40.0023V38.6626H134.742V40.0023H122.714ZM141.163 29.3289V30.6394H137.712V31.8771H140.668V33.1294H137.712V34.4836C139.285 34.469 140.377 34.4035 141.658 34.1778L141.833 35.4446C140.312 35.7213 139.059 35.7795 137.028 35.7795H136.154V29.3289H141.163ZM137.975 41.5166V36.9444H146.857V41.5166H137.975ZM139.591 40.2061H145.255V38.2258H139.591V40.2061ZM141.236 33.042V31.7315H142.721V28.7319H144.265V36.2892H142.721V33.042H141.236ZM145.313 36.3911V28.5135H146.857V36.3911H145.313ZM159.54 32.4741L156.715 40.3809H154.676L151.851 32.4741H153.832L155.652 38.3569H155.739L157.574 32.4741H159.54ZM164.971 29.8386V40.3809H163.063V31.6878H163.005L160.544 33.2604V31.5277L163.151 29.8386H164.971ZM168.116 40.4973C167.49 40.4973 166.973 39.9877 166.98 39.3616C166.973 38.75 167.49 38.2476 168.116 38.2404C168.72 38.2476 169.237 38.75 169.237 39.3616C169.237 39.9877 168.72 40.4973 168.116 40.4973ZM174.479 40.5265C171.938 40.5265 170.424 38.5607 170.431 35.1097C170.424 31.6733 171.953 29.6929 174.479 29.6929C177.006 29.6929 178.527 31.6733 178.527 35.1097C178.527 38.568 177.013 40.5265 174.479 40.5265ZM172.339 35.1097C172.339 37.6434 173.154 38.932 174.479 38.9393C175.797 38.932 176.62 37.6434 176.62 35.1097C176.613 32.5979 175.797 31.2728 174.479 31.2655C173.162 31.2728 172.346 32.5979 172.339 35.1097Z" fill="white"/>
<path d="M43.8411 48.5457V54.7471H42.7276V48.5457H43.8411ZM46.0424 52.0233V54.7471H44.946V50.0961H45.991V50.8841H46.051C46.2651 50.3616 46.7362 50.0361 47.43 50.0361C48.3979 50.0361 49.0317 50.6699 49.0232 51.7834V54.7471H47.9353V51.9547C47.9353 51.3295 47.6013 50.9612 47.0274 50.9612C46.445 50.9612 46.0424 51.3466 46.0424 52.0233ZM51.1645 52.0233V54.7471H50.0681V50.0961H51.1131V50.8841H51.1731C51.3872 50.3616 51.8583 50.0361 52.5521 50.0361C53.52 50.0361 54.1538 50.6699 54.1453 51.7834V54.7471H53.0575V51.9547C53.0575 51.3295 52.7234 50.9612 52.1495 50.9612C51.5671 50.9612 51.1645 51.3466 51.1645 52.0233ZM57.2203 54.8413C55.8669 54.8413 54.9932 53.882 54.9932 52.443C54.9932 50.9954 55.8669 50.0361 57.2203 50.0361C58.5822 50.0361 59.4473 50.9954 59.4473 52.443C59.4473 53.882 58.5822 54.8413 57.2203 54.8413ZM57.2288 53.9676C57.974 53.9676 58.3423 53.291 58.3423 52.4344C58.3423 51.5864 57.974 50.9012 57.2288 50.9012C56.4665 50.9012 56.0982 51.5864 56.0982 52.4344C56.0982 53.291 56.4665 53.9676 57.2288 53.9676ZM64.2867 50.0961L62.625 54.7471H61.4259L59.7642 50.0961H60.9291L61.9998 53.5565H62.0511L63.1304 50.0961H64.2867ZM64.6208 53.4366C64.6208 52.3916 65.4859 52.0832 66.351 52.0318C66.6722 52.0104 67.3403 51.9719 67.5416 51.9633V51.595C67.5416 51.1325 67.2418 50.8669 66.7022 50.8669C66.2139 50.8669 65.9141 51.0896 65.8285 51.4237H64.7749C64.852 50.6357 65.563 50.0361 66.7279 50.0361C67.6101 50.0361 68.6294 50.3958 68.6294 51.6378V54.7471H67.5844V54.1047H67.5501C67.3446 54.4987 66.9077 54.8413 66.1797 54.8413C65.2889 54.8413 64.6208 54.3531 64.6208 53.4366ZM65.6743 53.428C65.6743 53.8306 65.9998 54.0361 66.4623 54.0361C67.1219 54.0361 67.5501 53.5993 67.5501 53.0768V52.6914L66.5223 52.7599C65.9998 52.8027 65.6743 53.0169 65.6743 53.428ZM71.9785 50.0961V50.9355H71.062V53.3509C71.062 53.7963 71.2847 53.8905 71.5588 53.8905C71.6872 53.8905 71.9014 53.882 72.0384 53.8734V54.7642C71.9099 54.7899 71.6958 54.807 71.4217 54.807C70.5994 54.807 69.9656 54.4045 69.9741 53.5308V50.9355H69.306V50.0961H69.9741V48.9825H71.062V50.0961H71.9785ZM72.8179 54.7471V50.0961H73.9142V54.7471H72.8179ZM73.3746 49.4365C73.032 49.4365 72.7408 49.171 72.7408 48.8369C72.7408 48.5115 73.032 48.2459 73.3746 48.2459C73.7258 48.2459 74.0085 48.5115 74.0085 48.8369C74.0085 49.171 73.7258 49.4365 73.3746 49.4365ZM76.9892 54.8413C75.6359 54.8413 74.7622 53.882 74.7622 52.443C74.7622 50.9954 75.6359 50.0361 76.9892 50.0361C78.3511 50.0361 79.2162 50.9954 79.2162 52.443C79.2162 53.882 78.3511 54.8413 76.9892 54.8413ZM76.9978 53.9676C77.743 53.9676 78.1113 53.291 78.1113 52.4344C78.1113 51.5864 77.743 50.9012 76.9978 50.9012C76.2355 50.9012 75.8672 51.5864 75.8672 52.4344C75.8672 53.291 76.2355 53.9676 76.9978 53.9676ZM81.1606 52.0233V54.7471H80.0642V50.0961H81.1092V50.8841H81.1691C81.3833 50.3616 81.8544 50.0361 82.5482 50.0361C83.5161 50.0361 84.1499 50.6699 84.1413 51.7834V54.7471H83.0535V51.9547C83.0535 51.3295 82.7195 50.9612 82.1456 50.9612C81.5632 50.9612 81.1606 51.3466 81.1606 52.0233ZM90.6939 50.2502C90.6425 49.7192 90.1885 49.4108 89.5204 49.4108C88.8181 49.4108 88.3898 49.7534 88.3898 50.216C88.3898 50.7385 88.938 50.9526 89.4519 51.0725L90.0343 51.2267C90.9594 51.4408 91.8502 51.9291 91.8502 53.0083C91.8502 54.0961 90.9937 54.8413 89.5033 54.8413C88.0557 54.8413 87.1478 54.1475 87.0964 52.9226H88.1928C88.2442 53.5736 88.7924 53.8905 89.4947 53.8905C90.2313 53.8905 90.7367 53.5308 90.7367 52.9997C90.7367 52.5115 90.2827 52.3059 89.6146 52.1346L88.9123 51.9547C87.893 51.6892 87.2591 51.1753 87.2591 50.2845C87.2591 49.1881 88.2356 48.4601 89.5375 48.4601C90.8566 48.4601 91.7474 49.2052 91.7646 50.2502H90.6939ZM94.7539 54.8413C93.4005 54.8413 92.5269 53.882 92.5269 52.443C92.5269 50.9954 93.4005 50.0361 94.7539 50.0361C96.1158 50.0361 96.9809 50.9954 96.9809 52.443C96.9809 53.882 96.1158 54.8413 94.7539 54.8413ZM94.7624 53.9676C95.5076 53.9676 95.876 53.291 95.876 52.4344C95.876 51.5864 95.5076 50.9012 94.7624 50.9012C94.0001 50.9012 93.6318 51.5864 93.6318 52.4344C93.6318 53.291 94.0001 53.9676 94.7624 53.9676ZM98.9252 48.5457V54.7471H97.8289V48.5457H98.9252ZM102.942 52.7942V50.0961H104.03V54.7471H102.977V53.9248H102.925C102.711 54.4387 102.223 54.807 101.529 54.807C100.613 54.807 99.9788 54.1732 99.9702 53.0597V50.0961H101.067V52.8884C101.067 53.4794 101.418 53.8563 101.949 53.8563C102.428 53.8563 102.942 53.5051 102.942 52.7942ZM107.396 50.0961V50.9355H106.48V53.3509C106.48 53.7963 106.703 53.8905 106.977 53.8905C107.105 53.8905 107.319 53.882 107.456 53.8734V54.7642C107.328 54.7899 107.114 54.807 106.84 54.807C106.017 54.807 105.384 54.4045 105.392 53.5308V50.9355H104.724V50.0961H105.392V48.9825H106.48V50.0961H107.396ZM108.236 54.7471V50.0961H109.332V54.7471H108.236ZM108.793 49.4365C108.45 49.4365 108.159 49.171 108.159 48.8369C108.159 48.5115 108.45 48.2459 108.793 48.2459C109.144 48.2459 109.426 48.5115 109.426 48.8369C109.426 49.171 109.144 49.4365 108.793 49.4365ZM112.407 54.8413C111.054 54.8413 110.18 53.882 110.18 52.443C110.18 50.9954 111.054 50.0361 112.407 50.0361C113.769 50.0361 114.634 50.9954 114.634 52.443C114.634 53.882 113.769 54.8413 112.407 54.8413ZM112.416 53.9676C113.161 53.9676 113.529 53.291 113.529 52.4344C113.529 51.5864 113.161 50.9012 112.416 50.9012C111.653 50.9012 111.285 51.5864 111.285 52.4344C111.285 53.291 111.653 53.9676 112.416 53.9676ZM116.579 52.0233V54.7471H115.482V50.0961H116.527V50.8841H116.587C116.801 50.3616 117.272 50.0361 117.966 50.0361C118.934 50.0361 119.568 50.6699 119.559 51.7834V54.7471H118.472V51.9547C118.472 51.3295 118.137 50.9612 117.564 50.9612C116.981 50.9612 116.579 51.3466 116.579 52.0233ZM122.463 49.4793V48.5457H127.405V49.4793H125.495V54.7471H124.382V49.4793H122.463ZM129.615 54.8413C128.21 54.8413 127.354 53.9077 127.354 52.4515C127.354 51.0126 128.228 50.0361 129.555 50.0361C130.694 50.0361 131.679 50.747 131.679 52.383V52.7256H128.433C128.446 53.5179 128.913 53.9847 129.624 53.9847C130.103 53.9847 130.429 53.7792 130.566 53.5051H131.637C131.44 54.3102 130.694 54.8413 129.615 54.8413ZM128.442 51.9804H130.634C130.626 51.3466 130.206 50.8841 129.572 50.8841C128.913 50.8841 128.476 51.3851 128.442 51.9804ZM134.557 54.8413C133.17 54.8413 132.33 53.8477 132.33 52.443C132.33 51.0211 133.195 50.0361 134.557 50.0361C135.688 50.0361 136.476 50.6956 136.553 51.6978H135.508C135.422 51.2524 135.097 50.9098 134.566 50.9098C133.889 50.9098 133.435 51.4836 133.435 52.4173C133.435 53.3766 133.881 53.9505 134.566 53.9505C135.054 53.9505 135.414 53.6678 135.508 53.1625H136.553C136.467 54.1475 135.722 54.8413 134.557 54.8413ZM138.472 52.0233V54.7471H137.375V48.5457H138.446V50.8841H138.506C138.72 50.3616 139.166 50.0361 139.885 50.0361C140.853 50.0361 141.487 50.6614 141.487 51.7834V54.7471H140.399V51.9547C140.399 51.3209 140.056 50.9612 139.482 50.9612C138.891 50.9612 138.472 51.3466 138.472 52.0233ZM143.62 52.0233V54.7471H142.523V50.0961H143.568V50.8841H143.628C143.842 50.3616 144.313 50.0361 145.007 50.0361C145.975 50.0361 146.609 50.6699 146.6 51.7834V54.7471H145.513V51.9547C145.513 51.3295 145.178 50.9612 144.605 50.9612C144.022 50.9612 143.62 51.3466 143.62 52.0233ZM149.675 54.8413C148.322 54.8413 147.448 53.882 147.448 52.443C147.448 50.9954 148.322 50.0361 149.675 50.0361C151.037 50.0361 151.902 50.9954 151.902 52.443C151.902 53.882 151.037 54.8413 149.675 54.8413ZM149.684 53.9676C150.429 53.9676 150.797 53.291 150.797 52.4344C150.797 51.5864 150.429 50.9012 149.684 50.9012C148.922 50.9012 148.553 51.5864 148.553 52.4344C148.553 53.291 148.922 53.9676 149.684 53.9676ZM153.847 48.5457V54.7471H152.75V48.5457H153.847ZM156.922 54.8413C155.568 54.8413 154.695 53.882 154.695 52.443C154.695 50.9954 155.568 50.0361 156.922 50.0361C158.284 50.0361 159.149 50.9954 159.149 52.443C159.149 53.882 158.284 54.8413 156.922 54.8413ZM156.93 53.9676C157.675 53.9676 158.044 53.291 158.044 52.4344C158.044 51.5864 157.675 50.9012 156.93 50.9012C156.168 50.9012 155.8 51.5864 155.8 52.4344C155.8 53.291 156.168 53.9676 156.93 53.9676ZM162.027 56.5886C160.793 56.5886 160.014 56.0404 159.937 55.1668H161.024C161.102 55.5693 161.487 55.7664 162.044 55.7664C162.695 55.7664 163.123 55.4837 163.123 54.7985V53.9077H163.072C162.9 54.2503 162.532 54.6785 161.727 54.6785C160.656 54.6785 159.808 53.8991 159.808 52.383C159.808 50.8498 160.656 50.0361 161.735 50.0361C162.558 50.0361 162.9 50.5243 163.072 50.8584H163.123V50.0961H164.202V54.8242C164.202 56.0148 163.286 56.5886 162.027 56.5886ZM162.027 53.822C162.729 53.822 163.132 53.291 163.132 52.4001C163.132 51.5179 162.738 50.9269 162.027 50.9269C161.299 50.9269 160.922 51.5522 160.922 52.4001C160.922 53.2567 161.307 53.822 162.027 53.822ZM165.907 56.4944C165.693 56.4944 165.478 56.4858 165.341 56.4687V55.595C165.478 55.6036 165.658 55.6122 165.804 55.6122C166.069 55.6122 166.292 55.5865 166.481 55.0897L166.575 54.8413L164.879 50.0961H166.035L167.114 53.6079H167.166L168.245 50.0961H169.401L167.534 55.3124C167.269 56.0576 166.78 56.4944 165.907 56.4944Z" fill="#868687"/>
</svg>
