<svg width="21" height="20" viewBox="0 0 21 20" fill="none" xmlns="http://www.w3.org/2000/svg">
<path d="M13.1341 8.22109C13.1887 8.25772 13.2355 8.30478 13.2718 8.35955C13.3081 8.41432 13.3333 8.47573 13.3458 8.54024C13.3583 8.60476 13.3579 8.67111 13.3447 8.73549C13.3315 8.79987 13.3057 8.861 13.2688 8.91538L11.1409 12.0692C10.9883 12.2971 10.7835 12.4854 10.5435 12.6182C10.3034 12.751 10.0351 12.8246 9.76094 12.8329L9.71024 12.8334C9.4442 12.8333 9.18179 12.7717 8.94356 12.6533C8.70534 12.5348 8.49778 12.3629 8.33714 12.1508L7.41334 10.9299C7.37158 10.8777 7.34069 10.8178 7.32249 10.7535C7.3043 10.6892 7.29917 10.6219 7.30741 10.5556C7.31565 10.4893 7.33709 10.4254 7.37046 10.3675C7.40384 10.3096 7.44847 10.259 7.50173 10.2187C7.55498 10.1784 7.61578 10.1491 7.68053 10.1327C7.74528 10.1162 7.81267 10.1129 7.87871 10.123C7.94476 10.133 8.00812 10.1562 8.06507 10.1911C8.12201 10.2261 8.17137 10.2721 8.21024 10.3264L9.13404 11.5476C9.20661 11.6359 9.29762 11.7073 9.4007 11.7567C9.50378 11.8061 9.61643 11.8324 9.73074 11.8337C9.84617 11.8309 9.95923 11.8003 10.0602 11.7443C10.1612 11.6884 10.2472 11.6088 10.3107 11.5124L12.4407 8.35619C12.515 8.24666 12.6297 8.17097 12.7596 8.14566C12.8895 8.12035 13.0241 8.14747 13.1341 8.22109ZM15.2854 14.952C14.306 15.9314 13.0581 16.5984 11.6996 16.8686C10.3411 17.1388 8.933 17.0001 7.65332 16.4701C6.37364 15.94 5.27987 15.0424 4.51034 13.8907C3.74081 12.739 3.33008 11.385 3.33008 9.99989C3.33008 8.61477 3.74081 7.26075 4.51034 6.10907C5.27987 4.95738 6.37364 4.05975 7.65332 3.52968C8.933 2.99962 10.3411 2.86093 11.6996 3.13115C13.0581 3.40137 14.306 4.06836 15.2854 5.04779C15.9383 5.69667 16.4564 6.46825 16.81 7.31813C17.1635 8.168 17.3455 9.0794 17.3455 9.99989C17.3455 10.9204 17.1635 11.8318 16.81 12.6816C16.4564 13.5315 15.9383 14.3031 15.2854 14.952ZM14.5784 5.75479C13.7388 4.91515 12.6691 4.34334 11.5046 4.11166C10.34 3.87999 9.13286 3.99886 8.03584 4.45324C6.93883 4.90762 6.00119 5.67711 5.3415 6.66439C4.68182 7.65166 4.32971 8.81239 4.32971 9.99978C4.32971 11.1872 4.68182 12.3479 5.3415 13.3352C6.00119 14.3225 6.93883 15.0919 8.03584 15.5463C9.13286 16.0007 10.34 16.1196 11.5046 15.8879C12.6691 15.6562 13.7388 15.0844 14.5784 14.2448C15.7022 13.1178 16.3333 11.5913 16.3333 9.99978C16.3333 8.40829 15.7022 6.88173 14.5784 5.75479Z" fill="#999FA6"/>
</svg>
