<svg width="20" height="20" viewBox="0 0 20 20" fill="none" xmlns="http://www.w3.org/2000/svg">
<g clip-path="url(#clip0_123_21)">
<path d="M9.69658 7.25635C11.3206 7.25635 12.6378 8.57279 12.638 10.1968C12.638 11.8209 11.3207 13.1382 9.69658 13.1382C8.07259 13.138 6.75615 11.8208 6.75615 10.1968C6.75632 8.5729 8.0727 7.25652 9.69658 7.25635Z" stroke="white" stroke-linecap="round" stroke-linejoin="round"/>
<path d="M13.6896 5.68809C13.8712 5.85534 14.0432 6.02738 14.2057 6.2042L16.1626 6.48376C16.4815 7.03751 16.7273 7.63024 16.8938 8.24714L15.7039 9.83132C15.7039 9.83132 15.7254 10.3188 15.7039 10.5625L16.8938 12.1467C16.728 12.7638 16.4822 13.3567 16.1626 13.91L14.2057 14.1896C14.2057 14.1896 13.8688 14.5408 13.6896 14.7057L13.41 16.6626C12.8563 16.9815 12.2636 17.2273 11.6467 17.3938L10.0625 16.2039C9.81923 16.2254 9.57457 16.2254 9.33132 16.2039L7.74714 17.3938C7.12997 17.228 6.53715 16.9822 5.98376 16.6626L5.7042 14.7057C5.52738 14.5385 5.35534 14.3664 5.18809 14.1896L3.23116 13.91C2.9123 13.3563 2.66654 12.7636 2.5 12.1467L3.68993 10.5625C3.68993 10.5625 3.66842 10.075 3.68993 9.83132L2.5 8.24714C2.66577 7.62997 2.91157 7.03715 3.23116 6.48376L5.18809 6.2042C5.35534 6.02738 5.52738 5.85534 5.7042 5.68809L5.98376 3.73116C6.53751 3.4123 7.13024 3.16654 7.74714 3L9.33132 4.18993C9.57457 4.16842 9.81923 4.16842 10.0625 4.18993L11.6467 3C12.2638 3.16577 12.8567 3.41157 13.41 3.73116L13.6896 5.68809Z" stroke="white" stroke-linecap="round" stroke-linejoin="round"/>
</g>
<defs>
<clipPath id="clip0_123_21">
<rect width="20" height="20" fill="white"/>
</clipPath>
</defs>
</svg>
