<svg width="21" height="20" viewBox="0 0 21 20" fill="none" xmlns="http://www.w3.org/2000/svg">
<path d="M17.4059 5.40521C17.3715 5.33287 17.3202 5.26985 17.2564 5.22144C17.1925 5.17303 17.118 5.14064 17.0391 5.127C16.9601 5.11337 16.8791 5.11887 16.8027 5.14306C16.7263 5.16725 16.6569 5.20941 16.6002 5.26601L14.6367 7.23021C14.5414 7.32095 14.4148 7.37157 14.2831 7.37157C14.1515 7.37157 14.0249 7.32095 13.9296 7.23021L13.4336 6.73411C13.3399 6.64034 13.2872 6.51319 13.2872 6.38061C13.2872 6.24802 13.3399 6.12087 13.4336 6.02711L15.3967 4.06291C15.4533 4.00621 15.4954 3.93675 15.5196 3.86037C15.5437 3.784 15.5492 3.70293 15.5354 3.62401C15.5217 3.54509 15.4892 3.47062 15.4407 3.40687C15.3922 3.34313 15.3291 3.29197 15.2567 3.25771C14.5181 2.91101 13.6978 2.7758 12.887 2.86706C12.0761 2.95833 11.3064 3.27252 10.6634 3.77474C10.0203 4.27696 9.52894 4.94758 9.24392 5.71213C8.95889 6.47669 8.89132 7.30527 9.0487 8.10591L4.362 12.3702C3.9128 12.8094 3.62267 13.3857 3.53744 14.0081C3.4522 14.6305 3.57671 15.2635 3.8913 15.8073C4.11622 16.1818 4.42578 16.4983 4.79515 16.7315C5.16451 16.9647 5.5834 17.1081 6.0182 17.1502C6.109 17.1585 6.1989 17.1629 6.2887 17.1629C6.67541 17.1635 7.05794 17.083 7.41156 16.9265C7.76517 16.7699 8.08198 16.5409 8.3415 16.2542L12.5583 11.6142C13.359 11.7715 14.1876 11.7038 14.9522 11.4187C15.7168 11.1335 16.3873 10.6421 16.8895 9.99889C17.3917 9.3557 17.7058 8.58593 17.7969 7.77503C17.8881 6.96413 17.7527 6.14384 17.4059 5.40521ZM15.8259 9.69521C15.4019 10.1211 14.8727 10.4272 14.2921 10.5822C13.7115 10.7371 13.1001 10.7356 12.5203 10.5776C12.4311 10.5531 12.3368 10.5538 12.2479 10.5794C12.159 10.6051 12.0789 10.6548 12.0164 10.7231L7.6022 15.5802C7.41595 15.7854 7.18426 15.9443 6.92566 16.044C6.66706 16.1437 6.38872 16.1815 6.1129 16.1544C5.8325 16.1263 5.56256 16.033 5.32468 15.8819C5.08679 15.7309 4.88755 15.5262 4.7429 15.2844C4.54427 14.9291 4.46975 14.5178 4.53112 14.1154C4.5925 13.713 4.78628 13.3426 5.0818 13.0627L9.9402 8.64771C10.0087 8.58545 10.0587 8.50544 10.0846 8.41654C10.1104 8.32763 10.1112 8.23331 10.0867 8.14401C9.94976 7.63752 9.93135 7.10629 10.0329 6.59153C10.1345 6.07678 10.3533 5.59235 10.6723 5.17582C10.9913 4.75929 11.4021 4.42188 11.8726 4.18975C12.3431 3.95762 12.8608 3.83702 13.3855 3.83731C13.6348 3.83711 13.8834 3.86465 14.1267 3.91941L12.7267 5.32021C12.4455 5.6015 12.2875 5.98299 12.2875 6.38076C12.2875 6.77853 12.4455 7.16001 12.7267 7.44131L13.2228 7.93741C13.5086 8.21007 13.8884 8.3622 14.2833 8.3622C14.6783 8.3622 15.0581 8.21007 15.3439 7.93741L16.7439 6.53651C16.8691 7.09773 16.8506 7.68147 16.6901 8.23364C16.5296 8.7858 16.2324 9.28852 15.8259 9.69521ZM6.5067 14.1571C6.57662 14.227 6.62425 14.3161 6.64354 14.4131C6.66283 14.5101 6.65293 14.6106 6.61509 14.702C6.57724 14.7934 6.51316 14.8715 6.43093 14.9264C6.34871 14.9813 6.25204 15.0107 6.15315 15.0107C6.05426 15.0107 5.95759 14.9813 5.87536 14.9264C5.79314 14.8715 5.72905 14.7934 5.69121 14.702C5.65336 14.6106 5.64346 14.5101 5.66276 14.4131C5.68205 14.3161 5.72967 14.227 5.7996 14.1571C5.89337 14.0633 6.02054 14.0107 6.15315 14.0107C6.28575 14.0107 6.41293 14.0633 6.5067 14.1571Z" fill="#999FA6"/>
</svg>
