<svg width="20" height="20" viewBox="0 0 20 20" fill="none" xmlns="http://www.w3.org/2000/svg">
<path d="M16.3257 5.90002V5.69922C16.3249 5.03642 16.0613 4.401 15.5926 3.93233C15.1239 3.46366 14.4885 3.20001 13.8257 3.19922H6.1743C5.5115 3.20001 4.87608 3.46366 4.40741 3.93233C3.93874 4.401 3.67509 5.03642 3.6743 5.69922V5.90002C3.67534 6.2896 3.76777 6.67351 3.94418 7.02087C4.12059 7.36823 4.37604 7.66935 4.69 7.90002C4.37608 8.13071 4.12066 8.43184 3.94429 8.7792C3.76792 9.12656 3.67551 9.51045 3.6745 9.90002V10.1C3.67551 10.4896 3.76792 10.8735 3.94429 11.2208C4.12066 11.5682 4.37608 11.8693 4.69 12.1C4.37608 12.3307 4.12066 12.6318 3.94429 12.9792C3.76792 13.3266 3.67551 13.7105 3.6745 14.1V14.3007C3.67529 14.9635 3.93894 15.5989 4.40761 16.0676C4.87628 16.5363 5.5117 16.7999 6.1745 16.8007H13.8259C14.4887 16.7999 15.1241 16.5363 15.5928 16.0676C16.0615 15.5989 16.3251 14.9635 16.3259 14.3007V14.1C16.3249 13.7105 16.2325 13.3266 16.0561 12.9792C15.8797 12.6318 15.6243 12.3307 15.3104 12.1C15.6243 11.8693 15.8797 11.5682 16.0561 11.2208C16.2325 10.8735 16.3249 10.4896 16.3259 10.1V9.90002C16.3249 9.51045 16.2325 9.12656 16.0561 8.7792C15.8797 8.43184 15.6243 8.13071 15.3104 7.90002C15.6243 7.66931 15.8797 7.36817 16.056 7.02081C16.2323 6.67346 16.3247 6.28957 16.3257 5.90002ZM15.3257 14.1V14.3007C15.3252 14.6984 15.1671 15.0797 14.8859 15.3609C14.6047 15.6421 14.2234 15.8003 13.8257 15.8007H6.1743C5.77661 15.8003 5.39534 15.6421 5.11414 15.3609C4.83293 15.0797 4.67475 14.6984 4.6743 14.3007V14.1C4.67472 13.7023 4.83289 13.321 5.11411 13.0398C5.39532 12.7586 5.7766 12.6004 6.1743 12.6H13.8257C14.2234 12.6004 14.6047 12.7586 14.8859 13.0398C15.1671 13.321 15.3253 13.7023 15.3257 14.1ZM15.3257 9.90002V10.1C15.3252 10.4977 15.1671 10.879 14.8859 11.1602C14.6047 11.4414 14.2234 11.5996 13.8257 11.6H6.1743C5.77661 11.5996 5.39534 11.4414 5.11414 11.1602C4.83293 10.879 4.67475 10.4977 4.6743 10.1V9.90002C4.67475 9.50233 4.83293 9.12106 5.11414 8.83986C5.39534 8.55865 5.77661 8.40047 6.1743 8.40002H13.8257C14.2234 8.40047 14.6047 8.55865 14.8859 8.83986C15.1671 9.12106 15.3252 9.50233 15.3257 9.90002ZM15.3257 5.90002C15.3253 6.29771 15.1671 6.679 14.8859 6.96021C14.6047 7.24142 14.2234 7.3996 13.8257 7.40002H6.1743C5.7766 7.3996 5.39532 7.24142 5.11411 6.96021C4.83289 6.679 4.67472 6.29771 4.6743 5.90002V5.69922C4.67475 5.30153 4.83293 4.92026 5.11414 4.63906C5.39534 4.35785 5.77661 4.19967 6.1743 4.19922H13.8257C14.2234 4.19967 14.6047 4.35785 14.8859 4.63906C15.1671 4.92026 15.3252 5.30153 15.3257 5.69922V5.90002ZM7.1051 5.80002C7.1051 5.89891 7.07577 5.99558 7.02083 6.0778C6.96589 6.16003 6.8878 6.22412 6.79644 6.26196C6.70508 6.2998 6.60454 6.3097 6.50755 6.29041C6.41056 6.27112 6.32147 6.2235 6.25155 6.15357C6.18162 6.08365 6.134 5.99455 6.11471 5.89756C6.09541 5.80057 6.10532 5.70004 6.14316 5.60868C6.181 5.51731 6.24509 5.43922 6.32731 5.38428C6.40954 5.32934 6.50621 5.30002 6.6051 5.30002C6.73771 5.30002 6.86488 5.3527 6.95865 5.44647C7.05242 5.54023 7.1051 5.66741 7.1051 5.80002ZM10.2646 5.80002C10.2646 5.93263 10.2119 6.0598 10.1182 6.15357C10.0244 6.24734 9.89721 6.30002 9.7646 6.30002H8.1592C8.02659 6.30002 7.89941 6.24734 7.80565 6.15357C7.71188 6.0598 7.6592 5.93263 7.6592 5.80002C7.6592 5.66741 7.71188 5.54023 7.80565 5.44647C7.89941 5.3527 8.02659 5.30002 8.1592 5.30002H9.7646C9.89709 5.30002 10.0242 5.3526 10.1179 5.44622C10.2117 5.53983 10.2644 5.66753 10.2646 5.80002ZM6.1051 10C6.1051 9.90113 6.13442 9.80446 6.18936 9.72223C6.24431 9.64001 6.32239 9.57592 6.41376 9.53808C6.50512 9.50024 6.60565 9.49033 6.70264 9.50963C6.79964 9.52892 6.88873 9.57654 6.95865 9.64647C7.02858 9.71639 7.0762 9.80548 7.09549 9.90247C7.11478 9.99946 7.10488 10.1 7.06704 10.1914C7.0292 10.2827 6.96511 10.3608 6.88288 10.4158C6.80066 10.4707 6.70399 10.5 6.6051 10.5C6.47249 10.5 6.34531 10.4473 6.25155 10.3536C6.15778 10.2598 6.1051 10.1326 6.1051 10ZM7.6592 10C7.6592 9.86741 7.71188 9.74023 7.80565 9.64647C7.89941 9.5527 8.02659 9.50002 8.1592 9.50002H9.7646C9.89721 9.50002 10.0244 9.5527 10.1182 9.64647C10.2119 9.74023 10.2646 9.86741 10.2646 10C10.2646 10.1326 10.2119 10.2598 10.1182 10.3536C10.0244 10.4473 9.89721 10.5 9.7646 10.5H8.1592C8.02659 10.5 7.89941 10.4473 7.80565 10.3536C7.71188 10.2598 7.6592 10.1326 7.6592 10ZM6.1051 14.2005C6.1051 14.1016 6.13442 14.005 6.18936 13.9227C6.24431 13.8405 6.32239 13.7764 6.41376 13.7386C6.50512 13.7007 6.60565 13.6908 6.70264 13.7101C6.79964 13.7294 6.88873 13.777 6.95865 13.847C7.02858 13.9169 7.0762 14.006 7.09549 14.103C7.11478 14.2 7.10488 14.3005 7.06704 14.3919C7.0292 14.4832 6.96511 14.5613 6.88288 14.6163C6.80066 14.6712 6.70399 14.7005 6.6051 14.7005C6.47249 14.7005 6.34531 14.6478 6.25155 14.5541C6.15778 14.4603 6.1051 14.3331 6.1051 14.2005ZM7.6592 14.2005C7.6592 14.0679 7.71188 13.9407 7.80565 13.847C7.89941 13.7532 8.02659 13.7005 8.1592 13.7005H9.7646C9.89721 13.7005 10.0244 13.7532 10.1182 13.847C10.2119 13.9407 10.2646 14.0679 10.2646 14.2005C10.2646 14.3331 10.2119 14.4603 10.1182 14.5541C10.0244 14.6478 9.89721 14.7005 9.7646 14.7005H8.1592C8.02663 14.7005 7.89948 14.6479 7.80572 14.5541C7.71195 14.4604 7.65925 14.3331 7.6592 14.2005Z" fill="white"/>
</svg>
