<svg xmlns="http://www.w3.org/2000/svg" width="14.756" height="14.756" viewBox="0 0 14.756 14.756">
    <path data-name="패스 15" d="M15.006 9.148v-2.04l-2.153-.427a4.891 4.891 0 0 0-.361-.87l1.22-1.825-1.442-1.443-1.825 1.22a4.92 4.92 0 0 0-.87-.361L9.148 1.25h-2.04L6.681 3.4a4.92 4.92 0 0 0-.87.361L3.986 2.543 2.543 3.986l1.22 1.825a4.891 4.891 0 0 0-.361.87l-2.152.427v2.04l2.15.427a4.891 4.891 0 0 0 .361.87L2.543 12.27l1.442 1.442 1.825-1.22a4.891 4.891 0 0 0 .87.361l.427 2.153h2.04l.427-2.153a4.891 4.891 0 0 0 .87-.361l1.825 1.22 1.442-1.442-1.22-1.825a4.891 4.891 0 0 0 .361-.87zm-6.878.609a1.629 1.629 0 1 1 1.629-1.629 1.629 1.629 0 0 1-1.629 1.629z" transform="translate(-.75 -.75)" style="fill:none;stroke:#fff;stroke-linecap:round;stroke-linejoin:round"/>
</svg>
