<svg width="30" height="30" viewBox="0 0 30 30" fill="none" xmlns="http://www.w3.org/2000/svg">
<rect width="30" height="30" rx="6" fill="#F1B314" fill-opacity="0.1"/>
<path d="M17.1299 6.4834C18.1021 6.37404 19.086 6.53577 19.9717 6.95117L20.0391 6.98828C20.1042 7.02923 20.1611 7.08203 20.208 7.14355L20.251 7.20703C20.29 7.27345 20.3168 7.34654 20.3301 7.42285L20.3389 7.49902C20.3416 7.55034 20.3386 7.60185 20.3291 7.65234L20.3096 7.72656C20.2863 7.8002 20.2505 7.86921 20.2031 7.92969L20.1514 7.9873L17.8203 10.3184C17.7184 10.4203 17.6611 10.559 17.6611 10.7031C17.6612 10.8471 17.7184 10.985 17.8203 11.0869L18.4082 11.6748L18.4922 11.7412C18.5816 11.7984 18.6864 11.8291 18.7939 11.8291C18.9374 11.8291 19.0758 11.7736 19.1797 11.6748L21.5107 9.34473L21.5684 9.29395C21.6289 9.24648 21.6977 9.20987 21.7715 9.18652L21.8457 9.16797C21.9213 9.15363 21.999 9.1529 22.0752 9.16602L22.1504 9.18359C22.2242 9.20563 22.2938 9.24037 22.3555 9.28711C22.4171 9.33378 22.4696 9.39113 22.5107 9.45605L22.5479 9.52344V9.52441L22.6924 9.86035C23.0005 10.6545 23.1122 11.5133 23.0166 12.3633C22.9073 13.3349 22.5308 14.2577 21.9287 15.0283C21.4019 15.7026 20.7205 16.2378 19.9443 16.5898L19.6055 16.7295C18.6977 17.0677 17.7149 17.1492 16.7637 16.9678L11.7734 22.4541L11.7744 22.4551C11.5006 22.7573 11.1736 23.0065 10.8105 23.1904L10.6523 23.2646C10.2794 23.4296 9.87998 23.5252 9.47363 23.5459L9.29883 23.5498L8.97266 23.5352C8.44847 23.4845 7.94335 23.3112 7.49805 23.0303C7.05279 22.7493 6.67935 22.3681 6.4082 21.917V21.916C6.02904 21.2611 5.87875 20.4987 5.98145 19.749L6.03125 19.4707C6.17439 18.8283 6.50181 18.2393 6.97559 17.7764L6.97656 17.7744L12.5225 12.7314C12.341 11.7812 12.4235 10.7994 12.7617 9.89258C13.1035 8.9765 13.6928 8.17206 14.4639 7.57031L14.7598 7.35547C15.4662 6.87883 16.2793 6.5791 17.1299 6.4834ZM17.4971 7.74121C16.9611 7.77179 16.436 7.90947 15.9531 8.14746C15.4701 8.38556 15.0409 8.71847 14.6904 9.125L14.5449 9.30371C14.2175 9.73087 13.9797 10.2188 13.8457 10.7383L13.7949 10.9629C13.6758 11.5663 13.6978 12.1895 13.8584 12.7832H13.8574C13.881 12.8694 13.8869 12.9591 13.874 13.0469L13.8555 13.1328C13.8305 13.2186 13.7873 13.2981 13.7305 13.3662L13.6689 13.4307L7.89844 18.6709C7.59894 18.9548 7.39022 19.319 7.29492 19.7178L7.26074 19.8906C7.18958 20.3568 7.27579 20.8334 7.50586 21.2451L7.64355 21.4463C7.79229 21.6395 7.97369 21.8062 8.18066 21.9375L8.39453 22.0557C8.61415 22.1614 8.85092 22.2285 9.09473 22.2529L9.33496 22.2627C9.57467 22.2582 9.81226 22.2116 10.0371 22.125L10.2559 22.0264C10.4681 21.9147 10.6602 21.7663 10.8223 21.5879L16.0645 15.8232L16.1289 15.7617C16.1971 15.7052 16.2766 15.6635 16.3623 15.6387C16.4766 15.6057 16.5982 15.6044 16.7129 15.6357L16.9697 15.6973C17.572 15.8192 18.196 15.8006 18.792 15.6416L19.0439 15.5645C19.6258 15.3673 20.1557 15.0384 20.5908 14.6016L20.7637 14.418C21.1524 13.977 21.4397 13.4549 21.6045 12.8887L21.667 12.6436C21.7885 12.1002 21.7934 11.5374 21.6846 10.9902L20.0879 12.5869C19.7392 12.9193 19.2758 13.1045 18.7939 13.1045C18.3121 13.1045 17.8487 12.9193 17.5 12.5869L16.9102 11.9971C16.5667 11.6538 16.374 11.1885 16.374 10.7031C16.374 10.2178 16.5668 9.75241 16.9102 9.40918L18.5049 7.8125C18.249 7.7613 17.9887 7.73417 17.7275 7.73438L17.4971 7.74121ZM9.1377 19.709C9.30844 19.709 9.47202 19.7768 9.59277 19.8975L9.65527 19.9688C9.71171 20.0448 9.75089 20.1329 9.76953 20.2266C9.78813 20.32 9.78556 20.4161 9.7627 20.5078L9.73242 20.5986C9.68367 20.7161 9.60092 20.8161 9.49512 20.8867C9.38924 20.9574 9.26502 20.9951 9.1377 20.9951C9.01038 20.9951 8.88614 20.9574 8.78027 20.8867C8.70103 20.8338 8.63464 20.7646 8.58594 20.6836L8.54297 20.5986C8.49424 20.4811 8.48102 20.3514 8.50586 20.2266C8.5307 20.1018 8.59262 19.9874 8.68262 19.8975L8.78027 19.8164C8.88526 19.7464 9.00965 19.709 9.1377 19.709Z" fill="#E7A600" stroke="#E7A600" stroke-width="0.1"/>
</svg>
