<svg width="20" height="20" viewBox="0 0 20 20" fill="none" xmlns="http://www.w3.org/2000/svg">
<path d="M15.3947 3.5H4.60526C4.17966 3.50045 3.77163 3.66534 3.47068 3.95849C3.16974 4.25163 3.00046 4.6491 3 5.06367V12.4178C3.00047 12.8324 3.16974 13.2298 3.47069 13.523C3.77163 13.8161 4.17966 13.981 4.60526 13.9815H8.32381C8.28597 14.2945 8.16857 14.5935 7.98224 14.8512C7.79591 15.1089 7.54654 15.3173 7.2567 15.4576H6.49895C6.35704 15.4576 6.22094 15.5125 6.12059 15.6102C6.02024 15.708 5.96386 15.8405 5.96386 15.9788C5.96386 16.117 6.02024 16.2496 6.12059 16.3473C6.22094 16.4451 6.35704 16.5 6.49895 16.5H13.5011C13.643 16.5 13.7791 16.4451 13.8795 16.3473C13.9798 16.2496 14.0362 16.117 14.0362 15.9788C14.0362 15.8405 13.9798 15.708 13.8795 15.6102C13.7791 15.5125 13.643 15.4576 13.5011 15.4576H12.7435C12.4539 15.317 12.2048 15.1085 12.0185 14.8508C11.8323 14.5931 11.7148 14.2944 11.6765 13.9815H15.3947C15.8203 13.981 16.2284 13.8161 16.5293 13.523C16.8303 13.2298 16.9995 12.8324 17 12.4178V5.06367C16.9995 4.6491 16.8303 4.25163 16.5293 3.95849C16.2284 3.66534 15.8203 3.50045 15.3947 3.5ZM11.1449 15.4576H8.85503C9.15283 15.0148 9.33611 14.5083 9.38921 13.9815H10.6108C10.6639 14.5083 10.8471 15.0148 11.1449 15.4576ZM15.3947 12.939H4.60526C4.4634 12.9388 4.32741 12.8839 4.2271 12.7862C4.12679 12.6884 4.07036 12.556 4.07017 12.4178V5.06367C4.07036 4.92548 4.12679 4.79301 4.2271 4.6953C4.32741 4.5976 4.4634 4.54262 4.60526 4.54244H15.3947C15.5366 4.54262 15.6726 4.5976 15.7729 4.6953C15.8732 4.79301 15.9296 4.92548 15.9298 5.06367V11.3092H5.33576C5.19385 11.3092 5.05774 11.3641 4.9574 11.4618C4.85705 11.5596 4.80067 11.6922 4.80067 11.8304C4.80067 11.9686 4.85705 12.1012 4.9574 12.199C5.05774 12.2967 5.19385 12.3516 5.33576 12.3516H15.9298V12.4178C15.9296 12.556 15.8732 12.6884 15.7729 12.7861C15.6726 12.8839 15.5366 12.9388 15.3947 12.939ZM11.6053 9.32609V6.79225C11.6053 6.65401 11.6616 6.52144 11.762 6.42369C11.8623 6.32594 11.9984 6.27103 12.1403 6.27103C12.2823 6.27103 12.4184 6.32594 12.5187 6.42369C12.6191 6.52144 12.6754 6.65401 12.6754 6.79225V9.32609C12.6754 9.46432 12.6191 9.5969 12.5187 9.69465C12.4184 9.79239 12.2823 9.84731 12.1403 9.84731C11.9984 9.84731 11.8623 9.79239 11.762 9.69465C11.6616 9.5969 11.6053 9.46432 11.6053 9.32609ZM9.46491 9.32609V7.83469C9.46491 7.69646 9.52129 7.56388 9.62164 7.46613C9.72198 7.36838 9.85809 7.31347 10 7.31347C10.1419 7.31347 10.278 7.36838 10.3784 7.46613C10.4787 7.56388 10.5351 7.69646 10.5351 7.83469V9.32609C10.5351 9.46432 10.4787 9.5969 10.3784 9.69465C10.278 9.79239 10.1419 9.84731 10 9.84731C9.85809 9.84731 9.72198 9.79239 9.62164 9.69465C9.52129 9.5969 9.46491 9.46432 9.46491 9.32609ZM7.32457 9.32609V8.87714C7.32457 8.7389 7.38094 8.60632 7.48129 8.50858C7.58164 8.41083 7.71774 8.35591 7.85965 8.35591C8.00157 8.35591 8.13767 8.41083 8.23802 8.50858C8.33837 8.60632 8.39474 8.7389 8.39474 8.87714V9.32609C8.39474 9.46432 8.33837 9.5969 8.23802 9.69465C8.13767 9.79239 8.00157 9.84731 7.85965 9.84731C7.71774 9.84731 7.58164 9.79239 7.48129 9.69465C7.38094 9.5969 7.32457 9.46432 7.32457 9.32609Z" fill="white"/>
</svg>
