<svg width="20" height="20" viewBox="0 0 20 20" fill="none" xmlns="http://www.w3.org/2000/svg">
<g clip-path="url(#clip0_42_2391)">
<path d="M13.8342 9.99943C14.0254 10.0239 14.1721 10.1505 14.321 10.3091C15.3418 11.3951 15.9312 12.8548 15.941 14.3591C15.9475 15.3723 14.9034 16.1106 13.8304 16.5056C12.0969 17.1434 10.1813 17.2406 8.32333 17.0141C7.10044 16.8652 5.85202 16.6088 4.83937 15.8417C4.37868 15.4929 3.99623 14.9806 4.00003 14.3597C4.00981 12.8271 4.61718 11.3484 5.67057 10.2553C5.9384 9.97716 6.44201 9.94239 6.62346 10.3286C6.73374 10.5633 6.63378 10.8187 6.43114 11.0305C5.59994 11.9096 5.10883 13.1053 5.08656 14.3059C5.07787 14.7568 5.54507 15.0551 5.98295 15.2724C7.1124 15.833 8.41569 15.9976 9.70268 16.0237C11.1065 16.052 12.544 15.9129 13.8081 15.343C14.1672 15.1811 14.5367 14.9926 14.7605 14.6617C14.8833 14.4808 14.8577 14.2233 14.8382 13.9875C14.7436 12.8434 14.2254 11.7411 13.405 10.9246C13.405 10.9246 13.2795 10.7779 13.254 10.6356C13.1964 10.3145 13.4838 9.98476 13.8342 9.99943ZM9.99496 3C11.3846 3.01304 12.7368 3.84749 13.3643 5.09049C13.8864 6.12486 13.8978 7.40208 13.3947 8.44624C12.5728 10.1515 10.3714 11.0816 8.51348 10.3085C7.30091 9.80386 6.3904 8.63203 6.20786 7.32983C6.04108 6.13899 6.47895 4.8797 7.3498 4.04959C8.04084 3.39061 8.97634 3.00924 9.94607 3C9.96237 3 9.97866 3 9.99496 3ZM9.95313 4.08544C8.71394 4.0974 7.56059 5.03888 7.31177 6.25253C7.13032 7.13751 7.42695 8.10778 8.07506 8.74069C8.82422 9.47246 10.0129 9.71476 10.9957 9.31274C12.1425 8.84336 12.871 7.51291 12.6358 6.28567C12.4049 5.08234 11.2787 4.11369 10.0232 4.08599C9.99985 4.08544 9.97649 4.08544 9.95313 4.08544Z" fill="#6A6D75"/>
</g>
<defs>
<clipPath id="clip0_42_2391">
<rect width="20" height="20" fill="white"/>
</clipPath>
</defs>
</svg>
