<svg width="20" height="20" viewBox="0 0 20 20" fill="none" xmlns="http://www.w3.org/2000/svg">
<path d="M16.3886 8.48438L15.497 7.59277C15.4044 7.4996 15.2942 7.42573 15.1728 7.37543C15.0515 7.32514 14.9213 7.29942 14.79 7.29977H14.788C14.6569 7.29956 14.5271 7.32534 14.4061 7.37564C14.2851 7.42593 14.1752 7.49973 14.0829 7.59277L13.7889 7.88666V4.64014C13.7885 4.24245 13.6303 3.86117 13.3491 3.57996C13.0679 3.29875 12.6866 3.14057 12.2889 3.14014H7.98915C7.96428 3.14313 7.93967 3.14803 7.91554 3.15479C7.90071 3.15704 7.88801 3.15961 7.87342 3.16315C7.78435 3.18148 7.70207 3.22404 7.63563 3.28615L3.46571 7.4458C3.40379 7.51169 3.36121 7.59337 3.34266 7.68188C3.339 7.69647 3.3365 7.70935 3.33424 7.72424C3.32728 7.74899 3.32226 7.77426 3.31924 7.7998V15.3599C3.31968 15.7575 3.47785 16.1388 3.75906 16.42C4.04027 16.7012 4.42155 16.8594 4.81924 16.8599H12.289C12.6867 16.8594 13.0679 16.7012 13.3492 16.42C13.6304 16.1388 13.7885 15.7575 13.789 15.3599V12.4985L16.3886 9.89893C16.5757 9.71111 16.6808 9.45678 16.6808 9.19165C16.6808 8.92651 16.5757 8.67218 16.3886 8.48438ZM12.9395 11.9336L12.9325 11.9406L11.9745 12.8985L10.9627 13.0191L11.0829 12.0064L13.5368 9.5528L14.4314 10.4419L12.9395 11.9336ZM7.49012 4.84766V6.7998C7.48995 6.93235 7.43722 7.05943 7.34349 7.15316C7.24976 7.24689 7.12268 7.29962 6.99012 7.2998H5.03112L7.49012 4.84766ZM12.789 15.3599C12.7888 15.4924 12.736 15.6195 12.6423 15.7132C12.5486 15.807 12.4215 15.8597 12.289 15.8599H4.81922C4.68667 15.8597 4.55959 15.807 4.46586 15.7132C4.37213 15.6195 4.3194 15.4924 4.31922 15.3599V8.2998H6.99012C7.38782 8.29936 7.76909 8.14119 8.05031 7.85998C8.33152 7.57877 8.48969 7.19749 8.49012 6.7998V4.14014H12.289C12.4215 4.14031 12.5486 4.19304 12.6423 4.28677C12.736 4.3805 12.7888 4.50758 12.789 4.64014V8.88641L10.2528 11.4219C10.1733 11.5012 10.1231 11.6052 10.1102 11.7168L9.8954 13.5317C9.88704 13.6018 9.89364 13.6729 9.91475 13.7403C9.93587 13.8076 9.97102 13.8698 10.0179 13.9225C10.0648 13.9753 10.1223 14.0176 10.1867 14.0465C10.2511 14.0754 10.3209 14.0903 10.3915 14.0903C10.4111 14.0904 10.4306 14.0893 10.4501 14.0869L12.2645 13.8711C12.3762 13.8582 12.4802 13.8077 12.5595 13.728L12.789 13.4985V15.3599ZM15.1384 9.73492L14.2439 8.84583L14.7899 8.29983L15.6815 9.19192L15.1384 9.73492Z" fill="#999FA6"/>
</svg>
