<svg data-name="그룹 53" xmlns="http://www.w3.org/2000/svg" width="10.416" height="11.816" viewBox="0 0 10.416 11.816">
    <defs>
        <clipPath id="yvlkjnddoa">
            <path data-name="사각형 66" style="fill:#555" d="M0 0h10.416v11.816H0z"/>
        </clipPath>
    </defs>
    <g data-name="그룹 52" style="clip-path:url(#yvlkjnddoa)">
        <path data-name="패스 31" d="M53.573.889z" transform="translate(-48.67 -.808)" style="fill:#555"/>
        <path data-name="패스 32" d="M10.112 2.736 5.513.081a.611.611 0 0 0-.609 0L.3 2.736a.611.611 0 0 0-.3.528v1.815a6.683 6.683 0 0 0 3.332 5.771l1.5.866a.756.756 0 0 0 .753 0l1.5-.866a6.683 6.683 0 0 0 3.332-5.772V3.264a.611.611 0 0 0-.3-.528m-.341 2.343A6.04 6.04 0 0 1 6.764 10.3l-1.5.866a.113.113 0 0 1-.113 0l-1.5-.866a6.04 6.04 0 0 1-3.01-5.221v-1.8L5.208.645l4.568 2.637z" style="fill:#555"/>
        <path data-name="패스 33" d="m15.138 12.915-3.632 2.1a.55.55 0 0 0-.274.475v1.433a4.91 4.91 0 0 0 .8 2.863.318.318 0 0 0 .036.044l.008.007.019.016a.316.316 0 0 0 .04.028l.022.011a.32.32 0 0 0 .047.018l.02.006a.321.321 0 0 0 .07.009.321.321 0 0 0 .055-.005h.016l.039-.012.017-.006a.316.316 0 0 0 .043-.023h.008a.3.3 0 0 0 .024-.02.309.309 0 0 0 .024-.02l5.261-5.284.007-.009.021-.026a.3.3 0 0 0 .019-.027l.006-.009c0-.005 0-.011.007-.017a.314.314 0 0 0 .014-.031.3.3 0 0 0 .009-.029c0-.01 0-.02.006-.03s0-.021 0-.032v-.061c0-.01 0-.02-.006-.03s-.005-.019-.009-.029l-.011-.029-.015-.027-.016-.026a.3.3 0 0 0-.022-.026s-.007-.01-.012-.014l-.009-.007-.025-.021-.027-.019-.009-.006-2.029-1.126a.551.551 0 0 0-.549 0m1.9 1.481-4.672 4.685a4.4 4.4 0 0 1-.487-2.171V15.54l3.54-2.044z" transform="translate(-10.204 -11.666)" style="fill:#555"/>
        <path data-name="패스 34" d="M31.606 31.221a.32.32 0 0 0-.036.013l-.021.011a.319.319 0 0 0-.032.02l-.021.017-.02.016-5.489 5.489a.3.3 0 0 0-.02.024l-.017.021a.325.325 0 0 0-.018.032c0 .008-.009.015-.012.023a.323.323 0 0 0-.011.034c0 .008-.006.016-.007.025a.327.327 0 0 0 0 .034v.027a.324.324 0 0 0 0 .033v.029c0 .01.005.02.008.03a.3.3 0 0 0 .009.029c0 .01.009.019.013.028a.3.3 0 0 0 .015.029c.005.009.012.016.019.025l.017.022a5.326 5.326 0 0 0 1.238.986l1.179.682a.664.664 0 0 0 .662 0l1.184-.684a5.345 5.345 0 0 0 2.665-4.616v-1.43a.55.55 0 0 0-.274-.475l-.774-.447-.019-.009-.031-.014-.028-.008-.032-.007h-.089l-.036.006-.022.007m.665 2.382a4.7 4.7 0 0 1-2.345 4.061l-1.184.684a.021.021 0 0 1-.022 0l-1.184-.684a4.687 4.687 0 0 1-.871-.649l5.09-5.09.516.3z" transform="translate(-23.523 -28.35)" style="fill:#555"/>
    </g>
</svg>
