<svg xmlns="http://www.w3.org/2000/svg" width="8.996" height="13.153" viewBox="0 0 8.996 13.153">
    <g data-name="그룹 57">
        <path data-name="패스 39" d="M7.85 5.644a1.142 1.142 0 0 1-.81-.335L4.5 2.765 1.954 5.309a1.145 1.145 0 0 1-1.619-1.62L3.688.336a1.143 1.143 0 0 1 1.619 0l3.352 3.353a1.145 1.145 0 0 1-.809 1.955" style="fill:#fff"/>
        <path data-name="패스 40" d="M4.335 13.153a1.109 1.109 0 0 1-1.146-1.068V1.068A1.109 1.109 0 0 1 4.335 0a1.108 1.108 0 0 1 1.144 1.068v11.017a1.108 1.108 0 0 1-1.145 1.068" transform="translate(.163)" style="fill:#fff"/>
    </g>
</svg>
