<svg xmlns="http://www.w3.org/2000/svg" width="8.996" height="13.153" viewBox="0 0 8.996 13.153">
    <g data-name="그룹 57">
        <path data-name="패스 39" d="M7.851 5.643a1.142 1.142 0 0 1-.81-.335L4.5 2.765 1.954 5.308A1.145 1.145 0 0 1 .336 3.689L3.689.336a1.143 1.143 0 0 1 1.619 0L8.66 3.689a1.145 1.145 0 0 1-.809 1.955" transform="rotate(180 4.498 6.576)" style="fill:#cb4b99"/>
        <path data-name="패스 40" d="M1.146 13.153A1.109 1.109 0 0 1 0 12.085V1.068A1.109 1.109 0 0 1 1.146 0 1.108 1.108 0 0 1 2.29 1.068v11.017a1.108 1.108 0 0 1-1.145 1.068" transform="rotate(180 2.822 6.577)" style="fill:#cb4b99"/>
    </g>
</svg>
