<svg data-name="그룹 65" xmlns="http://www.w3.org/2000/svg" width="11.444" height="9.993" viewBox="0 0 11.444 9.993">
    <defs>
        <clipPath id="og4rdk5hxa">
            <path data-name="사각형 82" style="fill:none;stroke:#555;stroke-width:.8px" d="M0 0h11.444v9.993H0z"/>
        </clipPath>
    </defs>
    <g data-name="그룹 64" style="clip-path:url(#og4rdk5hxa)">
        <path data-name="패스 52" d="M4.571 10.6a5.379 5.379 0 0 1 0-7.6" transform="translate(-2.583 -2.584)" style="stroke-linecap:round;stroke-linejoin:round;fill:none;stroke:#555;stroke-width:.8px"/>
        <path data-name="패스 53" d="M13.255 16.945a3.653 3.653 0 0 1 0-5.161" transform="translate(-10.496 -10.149)" style="stroke-linecap:round;stroke-linejoin:round;fill:none;stroke:#555;stroke-width:.8px"/>
        <path data-name="패스 54" d="M22.088 24.012a1.731 1.731 0 0 1 0-2.445" transform="translate(-18.587 -18.574)" style="stroke-linecap:round;stroke-linejoin:round;fill:none;stroke:#555;stroke-width:.8px"/>
        <path data-name="패스 55" d="M68.137 10.6a5.379 5.379 0 0 0 0-7.6" transform="translate(-58.68 -2.584)" style="stroke-linecap:round;stroke-linejoin:round;fill:none;stroke:#555;stroke-width:.8px"/>
        <path data-name="패스 56" d="M62.581 16.945a3.653 3.653 0 0 0 0-5.161" transform="translate(-53.895 -10.149)" style="stroke-linecap:round;stroke-linejoin:round;fill:none;stroke:#555;stroke-width:.8px"/>
        <path data-name="패스 57" d="M57.233 24.012a1.731 1.731 0 0 0 0-2.445" transform="translate(-49.29 -18.574)" style="stroke-linecap:round;stroke-linejoin:round;fill:none;stroke:#555;stroke-width:.8px"/>
        <circle data-name="타원 7" cx="1.131" cy="1.131" r="1.131" transform="translate(4.522 3.099)" style="stroke-linecap:round;stroke-linejoin:round;fill:none;stroke:#555;stroke-width:.8px"/>
        <path data-name="선 16" transform="translate(5.653 5.445)" style="stroke-linecap:round;stroke-linejoin:round;fill:none;stroke:#555;stroke-width:.8px" d="M0 0v4.132"/>
    </g>
</svg>
