<svg xmlns="http://www.w3.org/2000/svg" width="19.104" height="23.097" viewBox="0 0 19.104 23.097">
    <path data-name="합치기 4" d="M3.426 23.1A3.446 3.446 0 0 1 0 19.638V8.283a.525.525 0 0 1 .522-.527h2.955V6.133a6.075 6.075 0 1 1 12.149 0v1.623h2.956a.524.524 0 0 1 .521.527v11.355a3.446 3.446 0 0 1-3.424 3.462zm-2.382-3.462a2.4 2.4 0 0 0 2.382 2.4h12.253a2.4 2.4 0 0 0 2.381-2.4V8.809H1.044zM14.583 7.756V6.133a5.03 5.03 0 1 0-10.06 0v1.623H5.4V6.133a4.149 4.149 0 1 1 8.3 0v1.623zm-1.926 0V6.133a3.1 3.1 0 1 0-6.209 0v1.623zm-8.479 7.533a5.374 5.374 0 1 1 5.374 5.426 5.406 5.406 0 0 1-5.374-5.426zm1.044 0a4.33 4.33 0 1 0 4.33-4.371 4.356 4.356 0 0 0-4.33 4.371zm3.808 2.79V16.5a2.275 2.275 0 1 1 1.044 0v1.575a.522.522 0 1 1-1.044 0zm-.708-3.81a1.23 1.23 0 1 0 1.23-1.242 1.238 1.238 0 0 0-1.23 1.241z" style="fill:#fff;opacity:.554"/>
</svg>
