<svg xmlns="http://www.w3.org/2000/svg" width="18.247" height="22.131" viewBox="0 0 18.247 22.131">
    <g data-name="데이터베이스1" style="opacity:.55">
        <path data-name="패스 76" d="M17.487 81.873H.76a.76.76 0 0 1-.76-.761V76.12a.76.76 0 0 1 .76-.76h16.727a.761.761 0 0 1 .761.76v4.993a.761.761 0 0 1-.761.76zM.818 81.054h16.61v-4.876H.818z" transform="translate(0 -67.551)" style="fill:#fff"/>
        <path data-name="패스 77" d="M23.68 57.883H7.778a.408.408 0 0 1-.408-.408v-2.117a.408.408 0 0 1 .408-.408h15.9a.408.408 0 0 1 .408.408v2.116a.408.408 0 0 1-.406.409zm-15.491-.818h15.082v-1.3H8.189z" transform="translate(-6.606 -49.256)" style="fill:#fff"/>
        <path data-name="패스 78" d="M17.487 157.242H.76a.759.759 0 0 1-.76-.76v-4.992a.76.76 0 0 1 .76-.76h16.727a.761.761 0 0 1 .761.76v4.993a.76.76 0 0 1-.761.759zm-16.669-.819h16.61v-4.876H.818z" transform="translate(0 -135.111)" style="fill:#fff"/>
        <path data-name="패스 79" d="M23.68 133.244H7.778a.409.409 0 0 1-.408-.409v-2.116a.408.408 0 0 1 .408-.408h15.9a.408.408 0 0 1 .408.408v2.116a.409.409 0 0 1-.406.409zm-15.491-.818h15.082v-1.3H8.189z" transform="translate(-6.606 -116.807)" style="fill:#fff"/>
        <path data-name="패스 80" d="M17.487 6.511H.76A.759.759 0 0 1 0 5.752V.76A.759.759 0 0 1 .76 0h16.727a.76.76 0 0 1 .761.76v4.992a.759.759 0 0 1-.761.759zM.818 5.694h16.61V.818H.818z" style="fill:#fff"/>
        <path data-name="패스 81" d="M29 28.288h-3.891a.409.409 0 1 1 0-.818H29a.409.409 0 1 1 0 .818z" transform="translate(-22.14 -24.623)" style="fill:#fff"/>
        <path data-name="패스 82" d="M77.889 28.34a.41.41 0 0 1-.29-.7.426.426 0 0 1 .578 0 .409.409 0 0 1 0 .579.408.408 0 0 1-.289.119z" transform="translate(-69.451 -24.676)" style="fill:#fff"/>
        <path data-name="패스 83" d="M119.479 37.018a.419.419 0 0 1-.29-.12.412.412 0 0 1-.119-.289.418.418 0 0 1 .119-.29.425.425 0 0 1 .578 0 .41.41 0 0 1-.289.7z" transform="translate(-106.731 -32.453)" style="fill:#fff"/>
        <path data-name="패스 84" d="M134.658 37.018a.415.415 0 0 1-.289-.12.408.408 0 0 1-.119-.289.414.414 0 0 1 .119-.29.425.425 0 0 1 .578 0 .41.41 0 0 1-.289.7z" transform="translate(-120.338 -32.453)" style="fill:#fff"/>
        <path data-name="패스 85" d="M149.818 37.018a.409.409 0 0 1-.408-.409.418.418 0 0 1 .119-.29.425.425 0 0 1 .578 0 .41.41 0 0 1-.289.7z" transform="translate(-133.927 -32.453)" style="fill:#fff"/>
        <path data-name="패스 86" d="M29 103.658h-3.891a.409.409 0 1 1 0-.818H29a.409.409 0 1 1 0 .818z" transform="translate(-22.14 -92.183)" style="fill:#fff"/>
        <path data-name="패스 87" d="M77.889 103.7a.41.41 0 0 1-.29-.7.425.425 0 0 1 .578 0 .419.419 0 0 1 .12.29.413.413 0 0 1-.12.289.409.409 0 0 1-.289.12z" transform="translate(-69.451 -92.223)" style="fill:#fff"/>
        <path data-name="패스 88" d="M119.479 112.39a.41.41 0 0 1-.29-.7.423.423 0 0 1 .578 0 .409.409 0 0 1-.289.7z" transform="translate(-106.731 -100.015)" style="fill:#fff"/>
        <path data-name="패스 89" d="M134.658 112.394a.41.41 0 0 1-.289-.7.424.424 0 0 1 .578 0 .412.412 0 0 1 .12.289.417.417 0 0 1-.12.289.409.409 0 0 1-.289.122z" transform="translate(-120.338 -100.019)" style="fill:#fff"/>
        <path data-name="패스 90" d="M149.818 112.394a.409.409 0 0 1-.289-.12.41.41 0 0 1 0-.578.424.424 0 0 1 .578 0 .408.408 0 0 1 0 .578.41.41 0 0 1-.289.12z" transform="translate(-133.927 -100.019)" style="fill:#fff"/>
        <path data-name="패스 91" d="M29 179.018h-3.891a.409.409 0 1 1 0-.818H29a.409.409 0 1 1 0 .818z" transform="translate(-22.14 -159.734)" style="fill:#fff"/>
        <path data-name="패스 92" d="M77.889 179.069a.407.407 0 0 1-.409-.408.411.411 0 0 1 .119-.289.423.423 0 0 1 .578 0 .408.408 0 0 1-.289.7z" transform="translate(-69.451 -159.785)" style="fill:#fff"/>
        <path data-name="패스 93" d="M119.479 187.751a.41.41 0 0 1-.29-.7.423.423 0 0 1 .578 0 .409.409 0 0 1 0 .579.409.409 0 0 1-.289.12z" transform="translate(-106.731 -167.566)" style="fill:#fff"/>
        <path data-name="패스 94" d="M134.658 187.751a.41.41 0 0 1-.289-.7.423.423 0 0 1 .578 0 .409.409 0 0 1 0 .579.409.409 0 0 1-.289.121z" transform="translate(-120.338 -167.566)" style="fill:#fff"/>
        <path data-name="패스 95" d="M149.818 187.751a.41.41 0 0 1-.289-.7.423.423 0 0 1 .578 0 .41.41 0 0 1-.289.7z" transform="translate(-133.927 -167.566)" style="fill:#fff"/>
    </g>
</svg>
