<svg xmlns="http://www.w3.org/2000/svg" width="24.233" height="23.666" viewBox="0 0 24.233 23.666">
    <defs>
        <clipPath id="l4g4ul093a">
            <path data-name="사각형 250" style="fill:#fff" d="M0 0h24.233v23.666H0z"/>
        </clipPath>
    </defs>
    <g style="opacity:.55">
        <g data-name="그룹 217" style="clip-path:url(#l4g4ul093a)">
            <path data-name="패스 126" d="M19.726 23.666H4.508a.4.4 0 0 1-.4-.4v-1.73a.4.4 0 0 1 .4-.4h3.564v-1.582H2.223A2.466 2.466 0 0 1 0 16.907V2.649A2.467 2.467 0 0 1 2.223 0H22.01a2.467 2.467 0 0 1 2.223 2.649v14.258a2.466 2.466 0 0 1-2.223 2.648h-5.633v1.577h3.349a.4.4 0 0 1 .4.4v1.73a.4.4 0 0 1-.4.4m-14.816-.8h14.414v-.926h-3.349a.4.4 0 0 1-.4-.4v-2.384a.4.4 0 0 1 .4-.4h6.035a1.675 1.675 0 0 0 1.419-1.843V2.649A1.676 1.676 0 0 0 22.01.8H2.223A1.676 1.676 0 0 0 .8 2.649v14.258a1.675 1.675 0 0 0 1.423 1.843h6.251a.4.4 0 0 1 .4.4v2.382a.4.4 0 0 1-.4.4H4.91z" style="fill:#fff"/>
            <path data-name="패스 127" d="M23.791 20.563H6.967a1.563 1.563 0 0 1-1.509-1.608V6.9a1.563 1.563 0 0 1 1.509-1.613h16.824A1.563 1.563 0 0 1 25.3 6.9v12.06a1.563 1.563 0 0 1-1.509 1.608M6.967 6.091a.76.76 0 0 0-.7.8v12.06a.76.76 0 0 0 .7.8h16.824a.76.76 0 0 0 .7-.8V6.9a.76.76 0 0 0-.7-.8z" transform="translate(-3.263 -3.161)" style="fill:#fff"/>
        </g>
    </g>
</svg>
