<svg xmlns="http://www.w3.org/2000/svg" width="25.404" height="23.052" viewBox="0 0 25.404 23.052">
    <path data-name="합치기 5" d="M2.318-3444.947A2.29 2.29 0 0 1 0-3447.2a2.284 2.284 0 0 1 2.1-2.246v-7.024a.391.391 0 0 1 .391-.391h3.372v-7.042a2.22 2.22 0 0 1-1.031-1.874A2.223 2.223 0 0 1 7.053-3468a2.224 2.224 0 0 1 2.186 1.83h4.938v-.715a.391.391 0 0 1 .391-.391h2.913a.392.392 0 0 1 .392.391v2.21a.392.392 0 0 1-.392.391h-1.066v1.784h2.558a.392.392 0 0 1 .392.391v4.925a.391.391 0 0 1-.392.391h-1.7v2.495a1.245 1.245 0 0 1-1.244 1.244 1.245 1.245 0 0 1-1.244-1.244v-2.495h-1.71a.391.391 0 0 1-.391-.391v-4.925a.391.391 0 0 1 .391-.391h2.559v-1.784h-1.067a.391.391 0 0 1-.391-.391v-.715H9.239a2.225 2.225 0 0 1-1 1.483v14.446h.444v-2.063a.391.391 0 0 1 .392-.39h3.731a.391.391 0 0 1 .391.39v2.063h.569v-2.063a.391.391 0 0 1 .391-.39h3.733a.391.391 0 0 1 .391.39v2.063h.568v-2.063a.391.391 0 0 1 .392-.39h3.731a.391.391 0 0 1 .391.39v2.079a2.282 2.282 0 0 1 2.037 2.245 2.29 2.29 0 0 1-2.318 2.256zM.782-3447.2a1.508 1.508 0 0 0 1.535 1.475h20.77a1.508 1.508 0 0 0 1.536-1.475 1.508 1.508 0 0 0-1.536-1.474H2.318a1.507 1.507 0 0 0-1.536 1.474zm6.679-2.256v-14.144a2.222 2.222 0 0 1-.408.038 2.21 2.21 0 0 1-.409-.038v14.137zm-1.6 0v-6.623H2.878v6.623zm13.768-.109h2.951v-1.563h-2.949zm-5.08 0H17.5v-1.563h-2.95zm-5.081 0h2.949v-1.563H9.469zm6.094-4.73a.462.462 0 0 0 .462.462.462.462 0 0 0 .462-.462v-2.495h-.923zm-2.1-3.276h5.116v-4.143h-5.111zm-7.853-8.2a1.44 1.44 0 0 0 1.439 1.439 1.44 1.44 0 0 0 1.438-1.439 1.441 1.441 0 0 0-1.438-1.439 1.441 1.441 0 0 0-1.434 1.43zm9.345.714h2.136v-1.427h-2.131zM2.1-3446.813v-.781h21.172v.781zm14.537-12.334v-1h1v1zm-1.109 0v-1h1v1zm-1.109 0v-1h1v1z" transform="translate(0 3468)" style="fill:#fff;opacity:.55"/>
</svg>
