<svg xmlns="http://www.w3.org/2000/svg" width="20.473" height="22.753" viewBox="0 0 20.473 22.753">
    <g data-name="데이터분석" style="opacity:.55">
        <path data-name="패스 96" d="M41.75 61.806a.521.521 0 0 1-.521-.521v-8.757L37.66 48.96v-5.62a.52.52 0 0 1 1.04 0v5.189l3.57 3.57v9.186a.52.52 0 0 1-.518.521z" transform="translate(-34.346 -39.052)" style="fill:#fff"/>
        <path data-name="패스 97" d="M80.733 43.775a.521.521 0 0 1-.521-.521V32.58l-2.882-2.8v-6.212a.52.52 0 0 1 1.041 0v5.769l2.882 2.8v11.117a.521.521 0 0 1-.52.521z" transform="translate(-70.526 -21.022)" style="fill:#fff"/>
        <path data-name="패스 98" d="M22.141 148.2a.521.521 0 0 1-.52-.521v-7.008l-2.148-2.146a.521.521 0 0 1 .736-.736l2.451 2.452v7.438a.521.521 0 0 1-.519.521z" transform="translate(-17.622 -125.532)" style="fill:#fff"/>
        <path data-name="패스 99" d="M142.931 95.03a.521.521 0 0 1-.521-.521v-5.98l3.57-3.57V79.77a.52.52 0 0 1 1.041 0v5.62l-3.571 3.57v5.55a.52.52 0 0 1-.519.52z" transform="translate(-129.88 -72.277)" style="fill:#fff"/>
        <path data-name="패스 100" d="M176.35 179.779a.521.521 0 0 1-.52-.521v-4.393l2.45-2.451a.521.521 0 0 1 .737.736l-2.148 2.145v3.963a.521.521 0 0 1-.52.521z" transform="translate(-160.36 -157.106)" style="fill:#fff"/>
        <path data-name="패스 101" d="M147.433 61.892a.515.515 0 0 1-.368-.151.521.521 0 0 1 0-.736l.339-.339V54.42a.52.52 0 0 1 1.041 0v6.674l-.642.645a.524.524 0 0 1-.368.153z" transform="translate(-133.986 -49.158)" style="fill:#fff"/>
        <path data-name="패스 102" d="M1.4 121.9a1.4 1.4 0 1 1 1.4-1.4 1.4 1.4 0 0 1-1.4 1.4zm0-.934a.46.46 0 1 0-.461-.462.461.461 0 0 0 .461.462z" transform="translate(0 -108.63)" style="fill:#fff"/>
        <path data-name="패스 103" d="M28.826 22.032a1.4 1.4 0 1 1 1.395-1.4 1.4 1.4 0 0 1-1.395 1.4zm0-.935a.461.461 0 1 0-.461-.461.461.461 0 0 0 .461.464z" transform="translate(-25.017 -17.547)" style="fill:#fff"/>
        <path data-name="패스 104" d="M68.106 2.791a1.4 1.4 0 1 1 1.4-1.4 1.4 1.4 0 0 1-1.4 1.4zm0-.934a.46.46 0 1 0-.461-.462.461.461 0 0 0 .461.461z" transform="translate(-60.84)" style="fill:#fff"/>
        <path data-name="패스 105" d="M143.408 30.971a1.4 1.4 0 1 1 1.395-1.4 1.4 1.4 0 0 1-1.395 1.4zm0-.936a.461.461 0 1 0-.462-.461.46.46 0 0 0 .462.461z" transform="translate(-129.515 -25.701)" style="fill:#fff"/>
        <path data-name="패스 106" d="M174.126 60.1a1.4 1.4 0 1 1 1.395-1.4 1.4 1.4 0 0 1-1.395 1.4zm0-.935a.461.461 0 1 0-.461-.461.462.462 0 0 0 .461.462z" transform="translate(-157.532 -52.268)" style="fill:#fff"/>
        <path data-name="패스 107" d="M202.366 153.811a1.4 1.4 0 1 1 1.395-1.4 1.4 1.4 0 0 1-1.395 1.4zm0-.934a.46.46 0 1 0-.461-.462.461.461 0 0 0 .461.461z" transform="translate(-183.288 -137.732)" style="fill:#fff"/>
        <path data-name="패스 108" d="M130.318 134.162a1.4 1.4 0 1 1 1.395-1.4 1.4 1.4 0 0 1-1.395 1.4zm0-.935a.461.461 0 1 0-.462-.461.46.46 0 0 0 .462.461z" transform="translate(-117.577 -119.811)" style="fill:#fff"/>
        <path data-name="패스 109" d="M105.776 71.151a1.4 1.4 0 1 1 1.4-1.4 1.4 1.4 0 0 1-1.4 1.4zm0-.935a.461.461 0 1 0-.461-.461.461.461 0 0 0 .461.461z" transform="translate(-95.196 -62.345)" style="fill:#fff"/>
    </g>
</svg>
