<svg xmlns="http://www.w3.org/2000/svg" width="31.114" height="20.811" viewBox="0 0 31.114 20.811">
    <path data-name="패스 66" d="M66.428 0a9.458 9.458 0 0 0-9.448 9.448v7.637c0 .029.042 2.905 3.67 2.905h3.027a1.411 1.411 0 1 0 .034-1.259H60.65c-2.311 0-2.406-1.48-2.409-1.646V9.448a8.188 8.188 0 0 1 16.376 0v7.637a.63.63 0 1 0 1.261 0V9.448A9.461 9.461 0 0 0 66.428 0z" transform="translate(-50.862)" style="fill:rgba(70,155,255,.25)"/>
    <path data-name="패스 67" d="M0 64.863a4.923 4.923 0 0 0 4.578 5.305V59.56A4.921 4.921 0 0 0 0 64.863z" transform="translate(0 -53.165)" style="fill:rgba(70,155,255,.25)"/>
    <path data-name="패스 68" d="M251.736 64.863a4.922 4.922 0 0 1-4.576 5.305V59.56a4.921 4.921 0 0 1 4.576 5.3z" transform="translate(-220.622 -53.165)" style="fill:rgba(70,155,255,.25)"/>
</svg>
