<svg xmlns="http://www.w3.org/2000/svg" width="20.925" height="18.63" viewBox="0 0 20.925 18.63">
    <g data-name="위험">
        <path data-name="패스 64" d="M20.66 15.752 12.12.96a1.919 1.919 0 0 0-3.32 0L.255 15.752a1.919 1.919 0 0 0 1.662 2.878H19a1.919 1.919 0 0 0 1.662-2.879zm-.886 1.407a.881.881 0 0 1-.775.448H1.917a.9.9 0 0 1-.775-1.343l8.54-14.793a.9.9 0 0 1 1.551 0l8.54 14.792a.879.879 0 0 1 0 .9z" transform="translate(.005)" style="fill:rgba(203,75,153,.25)"/>
        <path data-name="패스 65" d="m147.484 84.464-.221-3.315q-.062-.968-.062-1.391a1.264 1.264 0 0 1 .3-.9 1.035 1.035 0 0 1 .792-.322.8.8 0 0 1 .8.412 2.785 2.785 0 0 1 .2 1.187 8.947 8.947 0 0 1-.049.927l-.3 3.411a2.693 2.693 0 0 1-.207.934.544.544 0 0 1-.526.325.527.527 0 0 1-.519-.315 3.123 3.123 0 0 1-.207-.958zm.768 4.553a1.088 1.088 0 0 1-.737-.273.959.959 0 0 1-.315-.765 1.027 1.027 0 0 1 1.038-1.031 1.028 1.028 0 0 1 .744.3.983.983 0 0 1 .308.73.966.966 0 0 1-.312.761 1.06 1.06 0 0 1-.727.277z" transform="translate(-137.782 -73.515)" style="fill:rgba(203,75,153,.25)"/>
    </g>
</svg>
