<svg xmlns="http://www.w3.org/2000/svg" width="19.305" height="20.13" viewBox="0 0 19.305 20.13">
    <path data-name="톱니바퀴" d="M21.889 15.325a6.979 6.979 0 0 0-.209-1.668l2.12-1.546-1.664-2.887-2.4 1.065a6.972 6.972 0 0 0-2.891-1.671l-.278-2.608h-3.333l-.278 2.609a6.978 6.978 0 0 0-2.891 1.671l-2.4-1.065L6 12.111l2.123 1.546a6.766 6.766 0 0 0 0 3.336L6 18.539l1.667 2.887 2.4-1.065a6.972 6.972 0 0 0 2.891 1.671l.278 2.609h3.333l.278-2.609a6.978 6.978 0 0 0 2.891-1.671l2.4 1.065 1.662-2.887-2.123-1.546a6.984 6.984 0 0 0 .209-1.668zM14.9 18.613a3.288 3.288 0 1 1 3.288-3.288 3.288 3.288 0 0 1-3.288 3.288z" transform="translate(-5.25 -5.26)" style="fill:none;stroke:rgba(253,191,0,.25);stroke-linecap:round;stroke-linejoin:round;stroke-width:1.5px"/>
</svg>
